<svg width="103" height="100" viewBox="0 0 103 100" fill="none" xmlns="http://www.w3.org/2000/svg">
<g filter="url(#filter0_di_365_1109)">
<rect x="23.8906" y="7" width="67.3953" height="63" rx="13.186" transform="rotate(9.95504 23.8906 7)" fill="#373737"/>
<rect x="24.2967" y="7.57891" width="66.3953" height="62" rx="12.686" transform="rotate(9.95504 24.2967 7.57891)" stroke="#373737"/>
</g>
<rect width="38" height="38" transform="translate(37.4248 22) rotate(11.269)" fill="#373737"/>
<path d="M36.8174 41.2524C37.6925 36.8604 38.1301 34.6644 39.7664 33.5718C41.4027 32.4793 43.5987 32.9169 47.9907 33.792L55.7547 35.339C60.1467 36.2142 62.3427 36.6517 63.4352 38.288C64.5278 39.9243 64.0902 42.1203 63.2151 46.5123C62.34 50.9043 61.9024 53.1003 60.2661 54.1928C58.6298 55.2854 56.4338 54.8478 52.0418 53.9727L44.2778 52.4257C39.8858 51.5505 37.6898 51.113 36.5972 49.4767C35.5047 47.8403 35.9423 45.6444 36.8174 41.2524Z" stroke="url(#paint0_linear_365_1109)" stroke-width="2" stroke-linecap="round"/>
<path d="M63.9893 42.6309L65.5313 43.2145C66.5541 43.6016 67.0654 43.7952 67.4157 44.1317C67.7602 44.4625 67.997 44.8896 68.095 45.3571C68.1947 45.8324 68.0879 46.3686 67.8742 47.4411C67.6605 48.5136 67.5536 49.0498 67.2794 49.4506C67.0097 49.8449 66.6272 50.1486 66.1823 50.3221C65.7297 50.4986 65.1833 50.4814 64.0902 50.4469L62.4422 50.3949" stroke="url(#paint1_linear_365_1109)" stroke-width="2" stroke-linecap="round"/>
<path d="M43.6475 39.3848L42.4098 45.596" stroke="url(#paint2_linear_365_1109)" stroke-width="2" stroke-linecap="round"/>
<path d="M48.3057 40.3125L47.068 46.5237" stroke="url(#paint3_linear_365_1109)" stroke-width="2" stroke-linecap="round"/>
<defs>
<filter id="filter0_di_365_1109" x="0.419067" y="0.279532" width="102.433" height="98.864" filterUnits="userSpaceOnUse" color-interpolation-filters="sRGB">
<feFlood flood-opacity="0" result="BackgroundImageFix"/>
<feColorMatrix in="SourceAlpha" type="matrix" values="0 0 0 0 0 0 0 0 0 0 0 0 0 0 0 0 0 0 127 0" result="hardAlpha"/>
<feOffset dy="5.86047"/>
<feGaussianBlur stdDeviation="7.54535"/>
<feComposite in2="hardAlpha" operator="out"/>
<feColorMatrix type="matrix" values="0 0 0 0 0.777239 0 0 0 0 1 0 0 0 0 0.629695 0 0 0 0.15 0"/>
<feBlend mode="normal" in2="BackgroundImageFix" result="effect1_dropShadow_365_1109"/>
<feBlend mode="normal" in="SourceGraphic" in2="effect1_dropShadow_365_1109" result="shape"/>
<feColorMatrix in="SourceAlpha" type="matrix" values="0 0 0 0 0 0 0 0 0 0 0 0 0 0 0 0 0 0 127 0" result="hardAlpha"/>
<feOffset dx="-1.46512" dy="1.46512"/>
<feGaussianBlur stdDeviation="1.1"/>
<feComposite in2="hardAlpha" operator="arithmetic" k2="-1" k3="1"/>
<feColorMatrix type="matrix" values="0 0 0 0 0.44858 0 0 0 0 0.44858 0 0 0 0 0.44858 0 0 0 0.6 0"/>
<feBlend mode="normal" in2="shape" result="effect2_innerShadow_365_1109"/>
</filter>
<linearGradient id="paint0_linear_365_1109" x1="36.8304" y1="41.1872" x2="63.2281" y2="46.4472" gradientUnits="userSpaceOnUse">
<stop stop-color="#AAE6E7"/>
<stop offset="1" stop-color="#95E362"/>
</linearGradient>
<linearGradient id="paint1_linear_365_1109" x1="63.2211" y1="46.4857" x2="67.8796" y2="47.414" gradientUnits="userSpaceOnUse">
<stop stop-color="#AAE6E7"/>
<stop offset="1" stop-color="#95E362"/>
</linearGradient>
<linearGradient id="paint2_linear_365_1109" x1="43.033" y1="42.4687" x2="44.0137" y2="42.6641" gradientUnits="userSpaceOnUse">
<stop stop-color="#AAE6E7"/>
<stop offset="1" stop-color="#95E362"/>
</linearGradient>
<linearGradient id="paint3_linear_365_1109" x1="47.6912" y1="43.3964" x2="48.6719" y2="43.5918" gradientUnits="userSpaceOnUse">
<stop stop-color="#AAE6E7"/>
<stop offset="1" stop-color="#95E362"/>
</linearGradient>
</defs>
</svg>
