<svg width="1440" height="869" viewBox="0 0 1440 869" fill="none" xmlns="http://www.w3.org/2000/svg">
<g clip-path="url(#clip0_524_1076)">
<path opacity="0.5" fill-rule="evenodd" clip-rule="evenodd" d="M136.673 0.506459H-7.49356V144.679H121.738L136.673 129.742V0.506459ZM152.007 144.679L137.264 129.935V0.506459H281.431V144.679H152.007ZM137.264 159.794L151.788 145.27H281.431V289.442H137.264V159.794ZM121.957 145.27L136.673 159.986V289.442H-7.49356V145.27H121.957ZM-8 0V144.763V145.185V289.526V289.948V434.289V434.711V579.052V579.474V723.815V724.237V869H136.758H137.18H281.515H281.938H426.273H426.695H571.031H571.453H715.789H716.211H860.547H860.968H1005.3H1005.73H1150.06H1150.48H1294.82H1295.24H1440L1440 724.237V579.474V579.052V434.289V289.948V145.185V144.763V0H1295.24H1294.82H1150.48H1150.06H1005.73H1005.3H860.968H860.547H716.211H715.789H571.453H571.031H426.695H426.273H281.938H281.515H137.18H136.758H-8ZM282.022 0.506459H426.189V144.679H282.022V0.506459ZM570.947 0.506459H426.78V144.679H570.947V0.506459ZM571.538 0.506459H715.705V144.679H571.538V0.506459ZM860.462 0.506459H716.295V144.679H860.462V0.506459ZM861.053 0.506459H1005.22V144.679H861.053V0.506459ZM1149.98 0.506459H1005.81V144.679H1149.98V0.506459ZM1150.57 0.506459H1294.74V144.679H1150.57V0.506459ZM1439.49 0.506459H1295.33V144.679H1439.49V0.506459ZM282.022 145.27H426.189V289.442H282.022V145.27ZM570.947 145.27H426.78V289.442H556.445L570.947 274.94V145.27ZM585.807 289.442L571.538 275.172V145.27H715.705V289.442H585.807ZM571.538 304.991L586.447 290.082L586.397 290.032H715.705V434.204H571.538V304.991ZM555.855 290.032L555.805 290.082L570.947 305.223V434.204H426.78V290.032H555.855ZM860.462 145.27H716.295V289.442H860.462V145.27ZM861.053 145.27H1005.22V289.442H861.053V145.27ZM1149.98 145.27H1005.81V289.442H1149.98V145.27ZM1150.57 145.27H1294.74V249.444L1294.49 249.688L1254.74 289.442H1150.57V145.27ZM1254.15 290.032H1150.57V420.001L1151.05 419.517L1165.74 434.204H1294.74V330.72L1294.49 330.475L1254.49 290.473L1254.1 290.082L1254.15 290.032ZM1294.74 329.938L1254.88 290.082L1254.93 290.032H1279.61L1279.56 290.082L1294.74 305.256V329.938ZM1295.33 330.422V434.204H1439.49V290.032H1335.62L1335.66 290.082L1335.27 290.473L1295.33 330.422ZM1334.83 290.032L1334.88 290.082L1295.33 329.639V304.958L1310.2 290.082L1310.15 290.032H1334.83ZM1335.02 289.442H1439.49V145.27H1295.33V249.742L1335.02 289.442ZM1295.33 250.524L1334.24 289.442H1309.56L1295.33 275.205V250.524ZM1294.74 250.226L1255.52 289.442H1280.2L1294.74 274.907V250.226ZM1150.57 449.675L1151.05 450.159L1166.37 434.838L1166.33 434.795H1294.74V578.967H1150.57V449.675ZM1135.77 434.795L1135.73 434.838L1149.98 449.084V578.967H1005.81V434.795H1135.77ZM1149.98 420.592L1136.37 434.204H1005.81V290.032H1149.98V420.592ZM-7.49356 290.032H136.673V434.204H-7.49356V290.032ZM281.431 290.032H137.264V434.204H281.431V290.032ZM282.022 290.032H426.189V434.204H282.022V290.032ZM860.462 290.032H716.295V434.204H860.462V290.032ZM861.053 290.032H1005.22V434.204H861.053V290.032ZM-7.49356 434.795H136.673V578.967H-7.49356V434.795ZM281.431 434.795H137.264V578.967H241.597L241.41 578.78L241.801 578.389L281.431 538.757V434.795ZM281.431 539.539L242.192 578.78L242.379 578.967H267.06L266.872 578.78L281.431 564.22V539.539ZM282.022 563.63V538.949L282.193 538.778L322.193 578.78L322.006 578.967H297.326L297.513 578.78L282.193 563.459L282.022 563.63ZM282.022 593.93L282.193 594.101L296.735 579.558H321.415L282.193 618.782L282.022 618.611V593.93ZM267.651 579.558L281.431 593.339V618.021L242.97 579.558H267.651ZM242.188 579.558H137.264V723.73H281.431V618.803L242.188 579.558ZM282.022 619.393V723.73H426.189V579.558H322.197L282.584 619.173L282.193 619.564L282.022 619.393ZM322.788 578.967H426.189V434.795H282.022V538.166L282.193 537.995L282.584 538.387L322.584 578.389L322.976 578.78L322.788 578.967ZM570.947 434.795H426.78V578.967H570.947V434.795ZM571.538 434.795H715.705V578.967H571.538V434.795ZM860.462 434.795H716.295V578.967H860.462V434.795ZM861.053 434.795H1005.22V578.967H861.053V434.795ZM1439.49 434.795H1295.33V578.967H1439.49V434.795ZM-7.49356 579.558H136.673V723.73H-7.49356V579.558ZM570.947 579.558H426.78V723.73H570.947V579.558ZM571.538 579.558H715.705V723.73H571.538V579.558ZM860.462 579.558H716.295V723.73H860.462V579.558ZM861.053 579.558H1005.22V723.73H861.053V579.558ZM1149.98 579.558H1005.81V723.73H1149.98V579.558ZM1150.57 579.558H1294.74V723.73H1150.57V579.558ZM1439.49 579.558H1295.33V723.73H1439.49V579.558ZM-7.49356 724.321H136.673V868.494H-7.49356V724.321ZM281.431 724.321H137.264V868.494H281.431V724.321ZM282.022 724.321H426.189V868.494H282.022V724.321ZM570.947 724.321H426.78V868.494H570.947V724.321ZM571.538 724.321H715.705V868.494H571.538V724.321ZM860.462 724.321H716.295V868.494H860.462V724.321ZM861.053 724.321H1005.22V868.494H861.053V724.321ZM1149.98 724.321H1005.81V868.494H1149.98V724.321ZM1150.57 724.321H1294.74V868.494H1150.57V724.321ZM1439.49 724.321H1295.33V868.494H1439.49V724.321Z" fill="url(#paint0_radial_524_1076)" fill-opacity="0.6"/>
</g>
<defs>
<radialGradient id="paint0_radial_524_1076" cx="0" cy="0" r="1" gradientUnits="userSpaceOnUse" gradientTransform="translate(716 -487.746) rotate(90) scale(1247.26 2078.28)">
<stop stop-color="#AAE6E7"/>
<stop offset="1" stop-color="#AAE6E7" stop-opacity="0"/>
</radialGradient>
<clipPath id="clip0_524_1076">
<rect width="1448" height="869" fill="white" transform="translate(-8)"/>
</clipPath>
</defs>
</svg>
