<svg width="209" height="131" viewBox="0 0 209 131" fill="none" xmlns="http://www.w3.org/2000/svg">
<g clip-path="url(#clip0_543_1998)">
<path d="M38.2578 30.264L64.3859 4.13588C65.3325 3.18936 65.8057 2.7161 66.2078 2.88267C66.61 3.04923 66.61 3.71852 66.61 5.0571V30.5061C66.61 31.8446 66.61 32.5139 66.2078 32.6805C65.8057 32.847 65.3325 32.3738 64.3859 31.4273L55.1128 22.1541" stroke="white" stroke-width="3.257" stroke-linecap="round"/>
<path d="M56.709 5.29898L30.5809 31.4271C29.6343 32.3736 29.1611 32.8469 28.759 32.6803C28.3568 32.5138 28.3568 31.8445 28.3568 30.5059V5.05694C28.3568 3.71836 28.3568 3.04907 28.759 2.88251C29.1611 2.71594 29.6343 3.1892 30.5809 4.13572L39.854 13.4089" stroke="white" stroke-width="3.257" stroke-linecap="round"/>
</g>
<path d="M87.0885 19.2421C86.025 19.2421 85.0806 18.9723 84.2552 18.4326C83.4299 17.893 82.7791 17.1549 82.3029 16.2184C81.8426 15.2661 81.6125 14.1867 81.6125 12.9804C81.6125 11.7106 81.8902 10.5757 82.4458 9.57576C83.0172 8.57579 83.8108 7.79804 84.8267 7.2425C85.8425 6.67109 87.0409 6.38539 88.4218 6.38539C89.7709 6.38539 90.9296 6.66316 91.8979 7.21869C92.882 7.77423 93.6438 8.53611 94.1835 9.50434C94.7232 10.4726 94.993 11.5836 94.993 12.8376V18.9326H91.0169V17.0279H90.9217C90.6995 17.4565 90.4138 17.8374 90.0646 18.1707C89.7154 18.5041 89.2948 18.766 88.8027 18.9564C88.3265 19.1469 87.7551 19.2421 87.0885 19.2421ZM88.3265 15.647C88.8345 15.647 89.271 15.528 89.636 15.2899C90.0011 15.0359 90.2868 14.6947 90.4931 14.2661C90.6995 13.8375 90.8027 13.3534 90.8027 12.8138C90.8027 12.2741 90.6995 11.8059 90.4931 11.409C90.2868 10.9964 90.0011 10.671 89.636 10.4329C89.271 10.1789 88.8345 10.0519 88.3265 10.0519C87.8345 10.0519 87.398 10.1789 87.0171 10.4329C86.652 10.671 86.3663 10.9964 86.1599 11.409C85.9536 11.8059 85.8504 12.2741 85.8504 12.8138C85.8504 13.3534 85.9536 13.8375 86.1599 14.2661C86.3663 14.6947 86.652 15.0359 87.0171 15.2899C87.398 15.528 87.8345 15.647 88.3265 15.647ZM97.3865 18.9326V11.7424C97.3865 10.6789 97.6246 9.75036 98.1008 8.95673C98.5928 8.14724 99.2754 7.52027 100.148 7.07584C101.021 6.61554 102.061 6.38539 103.267 6.38539C103.87 6.38539 104.426 6.44888 104.934 6.57586C105.458 6.68696 105.926 6.85363 106.339 7.07584C106.767 7.29806 107.132 7.55202 107.434 7.83772H107.481C107.799 7.55202 108.164 7.29806 108.577 7.07584C108.989 6.85363 109.45 6.68696 109.958 6.57586C110.481 6.44888 111.045 6.38539 111.648 6.38539C112.87 6.38539 113.918 6.61554 114.791 7.07584C115.68 7.52027 116.362 8.14724 116.838 8.95673C117.314 9.75036 117.553 10.6789 117.553 11.7424V18.9326H113.41V11.9328C113.41 11.5836 113.33 11.2662 113.172 10.9805C113.013 10.6948 112.791 10.4646 112.505 10.29C112.219 10.1154 111.878 10.0281 111.481 10.0281C111.1 10.0281 110.759 10.1154 110.458 10.29C110.172 10.4646 109.942 10.6948 109.767 10.9805C109.608 11.2662 109.529 11.5836 109.529 11.9328V18.9326H105.41V11.9328C105.41 11.5836 105.323 11.2662 105.148 10.9805C104.989 10.6948 104.759 10.4646 104.458 10.29C104.172 10.1154 103.831 10.0281 103.434 10.0281C103.069 10.0281 102.736 10.1154 102.434 10.29C102.148 10.4646 101.918 10.6948 101.744 10.9805C101.585 11.2662 101.505 11.5836 101.505 11.9328V18.9326H97.3865ZM126.559 6.36158C127.59 6.36158 128.519 6.5203 129.344 6.83775C130.17 7.1552 130.868 7.61551 131.439 8.21866C132.027 8.80595 132.471 9.50434 132.773 10.3138C133.09 11.1233 133.249 12.0122 133.249 12.9804C133.249 14.2185 132.995 15.3057 132.487 16.2422C131.995 17.1787 131.305 17.9088 130.416 18.4326C129.527 18.9564 128.519 19.2183 127.392 19.2183C126.947 19.2183 126.519 19.1628 126.106 19.0517C125.694 18.9406 125.321 18.7818 124.987 18.5755C124.654 18.3533 124.36 18.0914 124.106 17.7898H124.011V24.0515H119.868V13.028C119.868 11.6789 120.146 10.5043 120.702 9.50434C121.257 8.50437 122.035 7.73455 123.035 7.19488C124.051 6.63935 125.225 6.36158 126.559 6.36158ZM126.559 9.9567C126.082 9.9567 125.654 10.0837 125.273 10.3376C124.892 10.5757 124.598 10.9091 124.392 11.3376C124.186 11.7503 124.083 12.2344 124.083 12.7899C124.083 13.2979 124.186 13.7661 124.392 14.1947C124.598 14.6074 124.892 14.9407 125.273 15.1946C125.654 15.4327 126.082 15.5518 126.559 15.5518C127.067 15.5518 127.503 15.4327 127.868 15.1946C128.249 14.9407 128.535 14.6074 128.725 14.1947C128.932 13.7661 129.035 13.2979 129.035 12.7899C129.035 12.2344 128.932 11.7503 128.725 11.3376C128.535 10.9091 128.249 10.5757 127.868 10.3376C127.503 10.0837 127.067 9.9567 126.559 9.9567ZM135.216 18.9326V1.5522H139.334V18.9326H135.216ZM153.097 19.2421C152.034 19.2421 151.09 18.9723 150.264 18.4326C149.439 17.893 148.788 17.1549 148.312 16.2184C147.852 15.2661 147.621 14.1867 147.621 12.9804C147.621 11.7106 147.899 10.5757 148.455 9.57576C149.026 8.57579 149.82 7.79804 150.836 7.2425C151.851 6.67109 153.05 6.38539 154.431 6.38539C155.78 6.38539 156.939 6.66316 157.907 7.21869C158.891 7.77423 159.653 8.53611 160.192 9.50434C160.732 10.4726 161.002 11.5836 161.002 12.8376V18.9326H157.026V17.0279H156.931C156.708 17.4565 156.423 17.8374 156.074 18.1707C155.724 18.5041 155.304 18.766 154.812 18.9564C154.335 19.1469 153.764 19.2421 153.097 19.2421ZM154.335 15.647C154.843 15.647 155.28 15.528 155.645 15.2899C156.01 15.0359 156.296 14.6947 156.502 14.2661C156.708 13.8375 156.812 13.3534 156.812 12.8138C156.812 12.2741 156.708 11.8059 156.502 11.409C156.296 10.9964 156.01 10.671 155.645 10.4329C155.28 10.1789 154.843 10.0519 154.335 10.0519C153.843 10.0519 153.407 10.1789 153.026 10.4329C152.661 10.671 152.375 10.9964 152.169 11.409C151.963 11.8059 151.859 12.2741 151.859 12.8138C151.859 13.3534 151.963 13.8375 152.169 14.2661C152.375 14.6947 152.661 15.0359 153.026 15.2899C153.407 15.528 153.843 15.647 154.335 15.647ZM163.395 18.9326V6.67109H167.538V18.9326H163.395ZM165.467 5.3378C164.832 5.3378 164.284 5.10765 163.824 4.64734C163.38 4.18704 163.157 3.64738 163.157 3.02835C163.157 2.39345 163.38 1.85378 163.824 1.40935C164.284 0.949046 164.832 0.718895 165.467 0.718895C166.102 0.718895 166.641 0.949046 167.086 1.40935C167.546 1.85378 167.776 2.39345 167.776 3.02835C167.776 3.64738 167.546 4.18704 167.086 4.64734C166.641 5.10765 166.102 5.3378 165.467 5.3378Z" fill="white"/>
<path d="M83.4296 32.1084L81.5983 28.1182H82.4383L83.9084 31.4868H83.4212L84.8997 28.1182H85.7061L83.8748 32.1084H83.4296ZM87.9 32.1924C87.536 32.1924 87.2056 32.1028 86.9088 31.9236C86.6119 31.7388 86.3767 31.4896 86.2031 31.1759C86.0351 30.8623 85.9511 30.5095 85.9511 30.1175C85.9511 29.7255 86.0351 29.3726 86.2031 29.059C86.3767 28.7454 86.6091 28.4962 86.9004 28.3114C87.1972 28.1266 87.5304 28.0342 87.9 28.0342C88.2024 28.0342 88.4713 28.0986 88.7065 28.2274C88.9473 28.3506 89.1405 28.5242 89.2861 28.7482C89.4317 28.9666 89.5129 29.2214 89.5297 29.5126V30.7139C89.5129 30.9995 89.4317 31.2543 89.2861 31.4784C89.1461 31.7024 88.9557 31.8788 88.7149 32.0076C88.4797 32.1308 88.208 32.1924 87.9 32.1924ZM88.026 31.4784C88.4013 31.4784 88.7037 31.3524 88.9333 31.1003C89.1629 30.8427 89.2777 30.5151 89.2777 30.1175C89.2777 29.8431 89.2245 29.605 89.1181 29.4034C89.0173 29.1962 88.8717 29.0366 88.6813 28.9246C88.4909 28.807 88.2696 28.7482 88.0176 28.7482C87.7656 28.7482 87.5416 28.807 87.3456 28.9246C87.1552 29.0422 87.004 29.2046 86.892 29.4118C86.7856 29.6134 86.7324 29.8459 86.7324 30.1091C86.7324 30.3779 86.7856 30.6159 86.892 30.8231C87.004 31.0247 87.158 31.1843 87.354 31.3019C87.55 31.4196 87.774 31.4784 88.026 31.4784ZM89.2273 32.1084V31.0331L89.3701 30.0587L89.2273 29.0926V28.1182H89.9918V32.1084H89.2273ZM91.0925 32.1084V26.1104H91.8485V32.1084H91.0925ZM94.8028 32.1924C94.4052 32.1924 94.0468 32.1028 93.7276 31.9236C93.4083 31.7388 93.1563 31.4896 92.9715 31.1759C92.7867 30.8623 92.6943 30.5067 92.6943 30.1091C92.6943 29.7171 92.7839 29.3642 92.9631 29.0506C93.1479 28.737 93.3943 28.4906 93.7024 28.3114C94.016 28.1266 94.366 28.0342 94.7524 28.0342C95.122 28.0342 95.4469 28.1182 95.7269 28.2862C96.0125 28.4542 96.2337 28.6866 96.3905 28.9834C96.5529 29.2802 96.6341 29.6162 96.6341 29.9915C96.6341 30.0475 96.6313 30.1091 96.6257 30.1763C96.6201 30.2379 96.6089 30.3107 96.5921 30.3947H93.2235V29.7647H96.1889L95.9117 30.0083C95.9117 29.7395 95.8641 29.5126 95.7689 29.3278C95.6737 29.1374 95.5393 28.9918 95.3657 28.891C95.192 28.7846 94.982 28.7314 94.7356 28.7314C94.478 28.7314 94.2512 28.7874 94.0552 28.8994C93.8592 29.0114 93.708 29.1682 93.6015 29.3698C93.4951 29.5714 93.4419 29.8095 93.4419 30.0839C93.4419 30.3639 93.4979 30.6103 93.6099 30.8231C93.722 31.0303 93.8816 31.1927 94.0888 31.3103C94.296 31.4224 94.534 31.4784 94.8028 31.4784C95.0268 31.4784 95.2312 31.4392 95.4161 31.3608C95.6065 31.2823 95.7689 31.1647 95.9033 31.0079L96.3905 31.5036C96.2001 31.7276 95.9649 31.8984 95.6849 32.016C95.4105 32.1336 95.1164 32.1924 94.8028 32.1924ZM100.281 32.1084V29.7815C100.281 29.479 100.186 29.2298 99.9955 29.0338C99.805 28.8378 99.5586 28.7398 99.2562 28.7398C99.0546 28.7398 98.8754 28.7846 98.7186 28.8742C98.5618 28.9638 98.4386 29.087 98.349 29.2438C98.2593 29.4006 98.2145 29.5798 98.2145 29.7815L97.9037 29.605C97.9037 29.3026 97.9709 29.0338 98.1053 28.7986C98.2397 28.5634 98.4274 28.3786 98.6682 28.2442C98.909 28.1042 99.1806 28.0342 99.483 28.0342C99.7854 28.0342 100.051 28.1098 100.281 28.261C100.516 28.4122 100.701 28.611 100.836 28.8574C100.97 29.0982 101.037 29.3558 101.037 29.6302V32.1084H100.281ZM97.4585 32.1084V28.1182H98.2145V32.1084H97.4585ZM103.884 32.1924C103.492 32.1924 103.136 32.1 102.817 31.9152C102.503 31.7304 102.254 31.4812 102.069 31.1675C101.89 30.8483 101.8 30.4955 101.8 30.1091C101.8 29.7171 101.89 29.3642 102.069 29.0506C102.254 28.737 102.503 28.4906 102.817 28.3114C103.136 28.1266 103.492 28.0342 103.884 28.0342C104.192 28.0342 104.477 28.093 104.74 28.2106C105.004 28.3226 105.231 28.4878 105.421 28.7062L104.917 29.2102C104.794 29.0646 104.642 28.9554 104.463 28.8826C104.29 28.8042 104.096 28.765 103.884 28.765C103.632 28.765 103.408 28.8238 103.212 28.9414C103.016 29.0534 102.862 29.2102 102.75 29.4118C102.638 29.6134 102.582 29.8459 102.582 30.1091C102.582 30.3723 102.638 30.6047 102.75 30.8063C102.862 31.0079 103.016 31.1675 103.212 31.2851C103.408 31.4028 103.632 31.4616 103.884 31.4616C104.096 31.4616 104.29 31.4252 104.463 31.3524C104.642 31.2739 104.796 31.1619 104.925 31.0163L105.421 31.5204C105.236 31.7332 105.009 31.8984 104.74 32.016C104.477 32.1336 104.192 32.1924 103.884 32.1924ZM107.481 32.142L105.751 28.1182H106.591L107.876 31.2683H107.607L108.96 28.1182H109.8L107.935 32.142H107.481ZM106.339 33.7801L107.515 31.3692L107.935 32.142L107.179 33.7801H106.339ZM114.081 32.1924C113.684 32.1924 113.325 32.1028 113.006 31.9236C112.687 31.7388 112.435 31.4896 112.25 31.1759C112.065 30.8623 111.973 30.5067 111.973 30.1091C111.973 29.7171 112.062 29.3642 112.242 29.0506C112.426 28.737 112.673 28.4906 112.981 28.3114C113.294 28.1266 113.645 28.0342 114.031 28.0342C114.401 28.0342 114.725 28.1182 115.005 28.2862C115.291 28.4542 115.512 28.6866 115.669 28.9834C115.831 29.2802 115.913 29.6162 115.913 29.9915C115.913 30.0475 115.91 30.1091 115.904 30.1763C115.899 30.2379 115.887 30.3107 115.871 30.3947H112.502V29.7647H115.467L115.19 30.0083C115.19 29.7395 115.143 29.5126 115.047 29.3278C114.952 29.1374 114.818 28.9918 114.644 28.891C114.471 28.7846 114.261 28.7314 114.014 28.7314C113.757 28.7314 113.53 28.7874 113.334 28.8994C113.138 29.0114 112.986 29.1682 112.88 29.3698C112.774 29.5714 112.72 29.8095 112.72 30.0839C112.72 30.3639 112.776 30.6103 112.888 30.8231C113 31.0303 113.16 31.1927 113.367 31.3103C113.575 31.4224 113.813 31.4784 114.081 31.4784C114.305 31.4784 114.51 31.4392 114.695 31.3608C114.885 31.2823 115.047 31.1647 115.182 31.0079L115.669 31.5036C115.479 31.7276 115.243 31.8984 114.963 32.016C114.689 32.1336 114.395 32.1924 114.081 32.1924ZM119.56 32.1084V29.7815C119.56 29.479 119.464 29.2298 119.274 29.0338C119.084 28.8378 118.837 28.7398 118.535 28.7398C118.333 28.7398 118.154 28.7846 117.997 28.8742C117.84 28.9638 117.717 29.087 117.627 29.2438C117.538 29.4006 117.493 29.5798 117.493 29.7815L117.182 29.605C117.182 29.3026 117.249 29.0338 117.384 28.7986C117.518 28.5634 117.706 28.3786 117.947 28.2442C118.188 28.1042 118.459 28.0342 118.762 28.0342C119.064 28.0342 119.33 28.1098 119.56 28.261C119.795 28.4122 119.98 28.611 120.114 28.8574C120.248 29.0982 120.316 29.3558 120.316 29.6302V32.1084H119.56ZM116.737 32.1084V28.1182H117.493V32.1084H116.737ZM123.187 32.1924C122.79 32.1924 122.431 32.1028 122.112 31.9236C121.793 31.7388 121.541 31.4896 121.356 31.1759C121.171 30.8623 121.079 30.5067 121.079 30.1091C121.079 29.7171 121.168 29.3642 121.348 29.0506C121.532 28.737 121.779 28.4906 122.087 28.3114C122.401 28.1266 122.751 28.0342 123.137 28.0342C123.507 28.0342 123.831 28.1182 124.111 28.2862C124.397 28.4542 124.618 28.6866 124.775 28.9834C124.937 29.2802 125.019 29.6162 125.019 29.9915C125.019 30.0475 125.016 30.1091 125.01 30.1763C125.005 30.2379 124.993 30.3107 124.977 30.3947H121.608V29.7647H124.573L124.296 30.0083C124.296 29.7395 124.249 29.5126 124.153 29.3278C124.058 29.1374 123.924 28.9918 123.75 28.891C123.577 28.7846 123.367 28.7314 123.12 28.7314C122.863 28.7314 122.636 28.7874 122.44 28.8994C122.244 29.0114 122.092 29.1682 121.986 29.3698C121.88 29.5714 121.826 29.8095 121.826 30.0839C121.826 30.3639 121.882 30.6103 121.994 30.8231C122.106 31.0303 122.266 31.1927 122.473 31.3103C122.681 31.4224 122.919 31.4784 123.187 31.4784C123.411 31.4784 123.616 31.4392 123.801 31.3608C123.991 31.2823 124.153 31.1647 124.288 31.0079L124.775 31.5036C124.585 31.7276 124.349 31.8984 124.069 32.016C123.795 32.1336 123.501 32.1924 123.187 32.1924ZM125.843 32.1084V28.1182H126.599V32.1084H125.843ZM126.599 29.8319L126.313 29.7059C126.313 29.1962 126.431 28.7902 126.666 28.4878C126.902 28.1854 127.24 28.0342 127.683 28.0342C127.884 28.0342 128.066 28.0706 128.229 28.1434C128.391 28.2106 128.542 28.3254 128.682 28.4878L128.187 29.0002C128.103 28.9106 128.01 28.8462 127.91 28.807C127.809 28.7678 127.691 28.7482 127.557 28.7482C127.277 28.7482 127.047 28.8378 126.868 29.017C126.689 29.1962 126.599 29.4678 126.599 29.8319ZM130.738 33.8641C130.33 33.8641 129.966 33.7885 129.646 33.6373C129.333 33.4861 129.081 33.2733 128.89 32.9989L129.377 32.5032C129.54 32.7104 129.733 32.8672 129.957 32.9737C130.181 33.0857 130.447 33.1417 130.755 33.1417C131.164 33.1417 131.486 33.0325 131.721 32.814C131.962 32.6012 132.082 32.3128 132.082 31.9488V30.9575L132.217 30.0587L132.082 29.1682V28.1182H132.839V31.9488C132.839 32.3296 132.749 32.6628 132.57 32.9484C132.396 33.2341 132.15 33.4581 131.83 33.6205C131.517 33.7829 131.153 33.8641 130.738 33.8641ZM130.738 32.0412C130.374 32.0412 130.047 31.9544 129.756 31.7808C129.47 31.6072 129.243 31.3692 129.075 31.0667C128.907 30.7587 128.823 30.4143 128.823 30.0335C128.823 29.6526 128.907 29.3138 129.075 29.017C129.243 28.7146 129.47 28.4766 129.756 28.303C130.047 28.1238 130.374 28.0342 130.738 28.0342C131.052 28.0342 131.329 28.0958 131.57 28.219C131.811 28.3422 132.001 28.5158 132.141 28.7398C132.287 28.9582 132.365 29.2158 132.376 29.5126V30.5711C132.36 30.8623 132.278 31.1199 132.133 31.344C131.993 31.5624 131.802 31.7332 131.562 31.8564C131.321 31.9796 131.046 32.0412 130.738 32.0412ZM130.89 31.3272C131.136 31.3272 131.352 31.2739 131.536 31.1675C131.727 31.0611 131.872 30.9127 131.973 30.7223C132.074 30.5263 132.124 30.2995 132.124 30.0419C132.124 29.7843 132.071 29.5602 131.965 29.3698C131.864 29.1738 131.721 29.0226 131.536 28.9162C131.352 28.8042 131.133 28.7482 130.881 28.7482C130.629 28.7482 130.408 28.8042 130.218 28.9162C130.027 29.0226 129.876 29.1738 129.764 29.3698C129.658 29.5602 129.604 29.7815 129.604 30.0335C129.604 30.2855 129.658 30.5095 129.764 30.7055C129.876 30.9015 130.027 31.0555 130.218 31.1675C130.414 31.2739 130.638 31.3272 130.89 31.3272ZM135.259 32.142L133.528 28.1182H134.368L135.654 31.2683H135.385L136.737 28.1182H137.577L135.712 32.142H135.259ZM134.116 33.7801L135.292 31.3692L135.712 32.142L134.956 33.7801H134.116ZM142.111 32.1924C141.808 32.1924 141.534 32.1308 141.288 32.0076C141.047 31.8788 140.854 31.7024 140.708 31.4784C140.562 31.2543 140.481 30.9995 140.464 30.7139V29.5126C140.481 29.2214 140.562 28.9666 140.708 28.7482C140.859 28.5242 141.055 28.3506 141.296 28.2274C141.542 28.0986 141.814 28.0342 142.111 28.0342C142.475 28.0342 142.802 28.1266 143.094 28.3114C143.391 28.4962 143.623 28.7454 143.791 29.059C143.959 29.3726 144.043 29.7255 144.043 30.1175C144.043 30.5095 143.959 30.8623 143.791 31.1759C143.623 31.4896 143.391 31.7388 143.094 31.9236C142.802 32.1028 142.475 32.1924 142.111 32.1924ZM140.011 33.7801V28.1182H140.767V29.1682L140.624 30.1343L140.767 31.1087V33.7801H140.011ZM141.985 31.4784C142.237 31.4784 142.458 31.4196 142.648 31.3019C142.839 31.1843 142.99 31.0247 143.102 30.8231C143.214 30.6159 143.27 30.3779 143.27 30.1091C143.27 29.8459 143.214 29.6106 143.102 29.4034C142.99 29.1962 142.839 29.0366 142.648 28.9246C142.458 28.807 142.24 28.7482 141.993 28.7482C141.741 28.7482 141.52 28.807 141.33 28.9246C141.139 29.0366 140.991 29.1962 140.884 29.4034C140.778 29.6106 140.725 29.8487 140.725 30.1175C140.725 30.3807 140.775 30.6159 140.876 30.8231C140.982 31.0247 141.131 31.1843 141.321 31.3019C141.517 31.4196 141.738 31.4784 141.985 31.4784ZM144.9 32.1084V28.1182H145.656V32.1084H144.9ZM145.656 29.8319L145.37 29.7059C145.37 29.1962 145.488 28.7902 145.723 28.4878C145.959 28.1854 146.297 28.0342 146.74 28.0342C146.941 28.0342 147.123 28.0706 147.286 28.1434C147.448 28.2106 147.599 28.3254 147.739 28.4878L147.244 29.0002C147.16 28.9106 147.067 28.8462 146.967 28.807C146.866 28.7678 146.748 28.7482 146.614 28.7482C146.334 28.7482 146.104 28.8378 145.925 29.017C145.746 29.1962 145.656 29.4678 145.656 29.8319ZM149.963 32.1924C149.571 32.1924 149.219 32.1 148.905 31.9152C148.591 31.7304 148.342 31.4812 148.157 31.1675C147.972 30.8483 147.88 30.4927 147.88 30.1007C147.88 29.7143 147.972 29.367 148.157 29.059C148.342 28.7454 148.591 28.4962 148.905 28.3114C149.219 28.1266 149.571 28.0342 149.963 28.0342C150.35 28.0342 150.7 28.1266 151.013 28.3114C151.333 28.4906 151.585 28.737 151.77 29.0506C151.954 29.3642 152.047 29.7143 152.047 30.1007C152.047 30.4927 151.954 30.8483 151.77 31.1675C151.585 31.4812 151.333 31.7304 151.013 31.9152C150.7 32.1 150.35 32.1924 149.963 32.1924ZM149.963 31.4616C150.215 31.4616 150.439 31.4028 150.635 31.2851C150.831 31.1675 150.985 31.0079 151.097 30.8063C151.209 30.5991 151.265 30.3639 151.265 30.1007C151.265 29.8431 151.207 29.6134 151.089 29.4118C150.977 29.2102 150.823 29.0534 150.627 28.9414C150.437 28.8238 150.215 28.765 149.963 28.765C149.711 28.765 149.487 28.8238 149.291 28.9414C149.095 29.0534 148.941 29.2102 148.829 29.4118C148.717 29.6134 148.661 29.8431 148.661 30.1007C148.661 30.3639 148.717 30.5991 148.829 30.8063C148.941 31.0079 149.095 31.1675 149.291 31.2851C149.487 31.4028 149.711 31.4616 149.963 31.4616ZM154.587 32.1924C154.217 32.1924 153.887 32.1028 153.596 31.9236C153.305 31.7388 153.072 31.4896 152.899 31.1759C152.731 30.8623 152.647 30.5095 152.647 30.1175C152.647 29.7255 152.731 29.3726 152.899 29.059C153.072 28.7454 153.305 28.4962 153.596 28.3114C153.887 28.1266 154.217 28.0342 154.587 28.0342C154.884 28.0342 155.153 28.0986 155.394 28.2274C155.634 28.3506 155.828 28.5242 155.973 28.7482C156.124 28.9666 156.208 29.2214 156.225 29.5126V30.7139C156.208 30.9995 156.127 31.2543 155.982 31.4784C155.836 31.7024 155.643 31.8788 155.402 32.0076C155.161 32.1308 154.89 32.1924 154.587 32.1924ZM154.713 31.4784C154.965 31.4784 155.184 31.4196 155.368 31.3019C155.559 31.1843 155.707 31.0247 155.814 30.8231C155.92 30.6159 155.973 30.3807 155.973 30.1175C155.973 29.8431 155.917 29.605 155.805 29.4034C155.699 29.2018 155.55 29.0422 155.36 28.9246C155.175 28.807 154.957 28.7482 154.705 28.7482C154.453 28.7482 154.231 28.807 154.041 28.9246C153.851 29.0422 153.699 29.2046 153.587 29.4118C153.481 29.6134 153.428 29.8459 153.428 30.1091C153.428 30.3779 153.481 30.6159 153.587 30.8231C153.699 31.0247 153.851 31.1843 154.041 31.3019C154.237 31.4196 154.461 31.4784 154.713 31.4784ZM156.687 32.1084H155.923V31.0331L156.066 30.0587L155.923 29.0926V26.1104H156.687V32.1084ZM159.401 32.1924C159.07 32.1924 158.774 32.1196 158.51 31.974C158.253 31.8228 158.051 31.6156 157.906 31.3524C157.76 31.0891 157.687 30.7839 157.687 30.4367V28.1182H158.443V30.4031C158.443 30.6215 158.48 30.8119 158.552 30.9743C158.631 31.1311 158.743 31.2515 158.888 31.3356C159.034 31.4196 159.205 31.4616 159.401 31.4616C159.698 31.4616 159.93 31.3692 160.098 31.1843C160.266 30.9939 160.35 30.7335 160.35 30.4031V28.1182H161.106V30.4367C161.106 30.7839 161.033 31.0891 160.888 31.3524C160.742 31.6156 160.541 31.8228 160.283 31.974C160.031 32.1196 159.737 32.1924 159.401 32.1924ZM163.942 32.1924C163.55 32.1924 163.195 32.1 162.876 31.9152C162.562 31.7304 162.313 31.4812 162.128 31.1675C161.949 30.8483 161.859 30.4955 161.859 30.1091C161.859 29.7171 161.949 29.3642 162.128 29.0506C162.313 28.737 162.562 28.4906 162.876 28.3114C163.195 28.1266 163.55 28.0342 163.942 28.0342C164.25 28.0342 164.536 28.093 164.799 28.2106C165.062 28.3226 165.289 28.4878 165.48 28.7062L164.976 29.2102C164.852 29.0646 164.701 28.9554 164.522 28.8826C164.348 28.8042 164.155 28.765 163.942 28.765C163.69 28.765 163.466 28.8238 163.27 28.9414C163.074 29.0534 162.92 29.2102 162.808 29.4118C162.696 29.6134 162.64 29.8459 162.64 30.1091C162.64 30.3723 162.696 30.6047 162.808 30.8063C162.92 31.0079 163.074 31.1675 163.27 31.2851C163.466 31.4028 163.69 31.4616 163.942 31.4616C164.155 31.4616 164.348 31.4252 164.522 31.3524C164.701 31.2739 164.855 31.1619 164.984 31.0163L165.48 31.5204C165.295 31.7332 165.068 31.8984 164.799 32.016C164.536 32.1336 164.25 32.1924 163.942 32.1924ZM166.793 32.1084V26.4465H167.55V32.1084H166.793ZM165.811 28.807V28.1182H168.532V28.807H165.811Z" fill="white"/>
<path d="M4.38281 72.7289C4.38281 72.1077 4.53433 71.5414 4.83736 71.0301C5.14039 70.5187 5.54759 70.1115 6.05895 69.8085C6.57031 69.5055 7.1366 69.3539 7.75781 69.3539C8.29569 69.3539 8.7919 69.4695 9.24645 69.7005C9.70478 69.9316 10.0836 70.2479 10.3828 70.6494C10.6821 71.0471 10.8677 71.4979 10.9396 72.0017H9.56463C9.48887 71.6115 9.27865 71.2933 8.93395 71.0471C8.58925 70.7971 8.19721 70.6721 7.75781 70.6721C7.37902 70.6721 7.03433 70.7649 6.72372 70.9505C6.41312 71.1361 6.16501 71.3842 5.9794 71.6948C5.7938 72.0055 5.70099 72.3501 5.70099 72.7289C5.70099 73.1077 5.7938 73.4524 5.9794 73.763C6.16501 74.0736 6.41312 74.3217 6.72372 74.5073C7.03433 74.693 7.37902 74.7858 7.75781 74.7858C8.19721 74.7858 8.56842 74.6626 8.87145 74.4164C9.17827 74.1664 9.37145 73.8464 9.45099 73.4562H10.826C10.754 73.96 10.5779 74.4126 10.2976 74.8142C10.0173 75.2119 9.65743 75.5263 9.21804 75.7573C8.78243 75.9884 8.29569 76.1039 7.75781 76.1039C7.1366 76.1039 6.57031 75.9524 6.05895 75.6494C5.54759 75.3464 5.14039 74.9392 4.83736 74.4278C4.53433 73.9164 4.38281 73.3501 4.38281 72.7289ZM7.70099 78.7289C6.87524 78.7289 6.09872 78.5736 5.37145 78.263C4.64796 77.9524 4.00971 77.5225 3.45668 76.9733C2.90743 76.4202 2.47562 75.782 2.16122 75.0585C1.85062 74.335 1.69721 73.5585 1.70099 72.7289C1.70478 71.8994 1.86198 71.1229 2.17259 70.3994C2.48698 69.6759 2.9188 69.0395 3.46804 68.4903C4.01728 67.9373 4.65365 67.5055 5.37713 67.1948C6.10062 66.8842 6.87524 66.7289 7.70099 66.7289C8.53054 66.7289 9.30706 66.8842 10.0305 67.1948C10.7578 67.5055 11.3942 67.9373 11.9396 68.4903C12.4889 69.0395 12.9188 69.6759 13.2294 70.3994C13.54 71.1229 13.6972 71.8994 13.701 72.7289C13.7048 73.5585 13.5514 74.335 13.2408 75.0585C12.9302 75.782 12.5002 76.4202 11.951 76.9733C11.4018 77.5225 10.7635 77.9524 10.0362 78.263C9.30895 78.5736 8.53054 78.7289 7.70099 78.7289ZM7.70099 77.4108C8.34872 77.4108 8.95668 77.2895 9.52486 77.0471C10.093 76.8047 10.5911 76.4695 11.0192 76.0414C11.4472 75.6134 11.7824 75.1172 12.0249 74.5528C12.2673 73.9846 12.3866 73.3786 12.3828 72.7346C12.379 72.0869 12.2559 71.4789 12.0135 70.9108C11.7711 70.3426 11.4358 69.8445 11.0078 69.4164C10.5798 68.9884 10.0836 68.6532 9.51918 68.4108C8.95478 68.1683 8.34872 68.0471 7.70099 68.0471C7.05706 68.0471 6.45289 68.1683 5.88849 68.4108C5.3241 68.6532 4.82789 68.9903 4.39986 69.4221C3.97183 69.8501 3.63471 70.3483 3.38849 70.9164C3.14607 71.4808 3.02296 72.0869 3.01918 72.7346C3.01539 73.3748 3.13471 73.9789 3.37713 74.5471C3.61956 75.1115 3.95478 75.6077 4.38281 76.0358C4.81463 76.4638 5.31274 76.8009 5.87713 77.0471C6.44531 77.2895 7.05327 77.4108 7.70099 77.4108ZM20.728 78.5471V77.5244L24.5689 73.3198C25.0196 72.8274 25.3909 72.3994 25.6825 72.0358C25.9742 71.6683 26.1901 71.3236 26.3303 71.0017C26.4742 70.6759 26.5462 70.335 26.5462 69.9789C26.5462 69.5698 26.4477 69.2157 26.2507 68.9164C26.0575 68.6172 25.7924 68.3861 25.4553 68.2233C25.1181 68.0604 24.7393 67.9789 24.3189 67.9789C23.8719 67.9789 23.4818 68.0717 23.1484 68.2573C22.8189 68.4392 22.5632 68.6948 22.3814 69.0244C22.2034 69.3539 22.1143 69.7403 22.1143 70.1835H20.7734C20.7734 69.5017 20.9306 68.9032 21.245 68.388C21.5594 67.8729 21.9875 67.4714 22.5291 67.1835C23.0746 66.8956 23.6863 66.7517 24.3643 66.7517C25.0462 66.7517 25.6503 66.8956 26.1768 67.1835C26.7034 67.4714 27.1162 67.8596 27.4155 68.3483C27.7147 68.8369 27.8643 69.3805 27.8643 69.9789C27.8643 70.407 27.7867 70.8255 27.6314 71.2346C27.4799 71.6399 27.2147 72.0926 26.8359 72.5926C26.4609 73.0888 25.9401 73.6948 25.2734 74.4108L22.6598 77.2062V77.2971H28.0689V78.5471H20.728ZM34.2109 78.7062C33.3549 78.7062 32.6257 78.4733 32.0234 78.0073C31.4212 77.5376 30.9609 76.8577 30.6428 75.9676C30.3246 75.0736 30.1655 73.9941 30.1655 72.7289C30.1655 71.4714 30.3246 70.3975 30.6428 69.5073C30.9647 68.6134 31.4268 67.9316 32.0291 67.4619C32.6352 66.9884 33.3625 66.7517 34.2109 66.7517C35.0594 66.7517 35.7848 66.9884 36.3871 67.4619C36.9931 67.9316 37.4553 68.6134 37.7734 69.5073C38.0954 70.3975 38.2564 71.4714 38.2564 72.7289C38.2564 73.9941 38.0973 75.0736 37.7791 75.9676C37.4609 76.8577 37.0007 77.5376 36.3984 78.0073C35.7962 78.4733 35.067 78.7062 34.2109 78.7062ZM34.2109 77.4562C35.0594 77.4562 35.7185 77.0471 36.1882 76.2289C36.6579 75.4108 36.8928 74.2441 36.8928 72.7289C36.8928 71.7214 36.7848 70.8634 36.5689 70.1551C36.3568 69.4467 36.05 68.907 35.6484 68.5358C35.2507 68.1645 34.7715 67.9789 34.2109 67.9789C33.37 67.9789 32.7128 68.3937 32.2393 69.2233C31.7659 70.049 31.5291 71.2176 31.5291 72.7289C31.5291 73.7365 31.6352 74.5926 31.8473 75.2971C32.0594 76.0017 32.3643 76.5376 32.7621 76.9051C33.1636 77.2725 33.6465 77.4562 34.2109 77.4562ZM40.4155 78.5471V77.5244L44.2564 73.3198C44.7071 72.8274 45.0784 72.3994 45.37 72.0358C45.6617 71.6683 45.8776 71.3236 46.0178 71.0017C46.1617 70.6759 46.2337 70.335 46.2337 69.9789C46.2337 69.5698 46.1352 69.2157 45.9382 68.9164C45.745 68.6172 45.4799 68.3861 45.1428 68.2233C44.8056 68.0604 44.4268 67.9789 44.0064 67.9789C43.5594 67.9789 43.1693 68.0717 42.8359 68.2573C42.5064 68.4392 42.2507 68.6948 42.0689 69.0244C41.8909 69.3539 41.8018 69.7403 41.8018 70.1835H40.4609C40.4609 69.5017 40.6181 68.9032 40.9325 68.388C41.2469 67.8729 41.675 67.4714 42.2166 67.1835C42.7621 66.8956 43.3738 66.7517 44.0518 66.7517C44.7337 66.7517 45.3378 66.8956 45.8643 67.1835C46.3909 67.4714 46.8037 67.8596 47.103 68.3483C47.4022 68.8369 47.5518 69.3805 47.5518 69.9789C47.5518 70.407 47.4742 70.8255 47.3189 71.2346C47.1674 71.6399 46.9022 72.0926 46.5234 72.5926C46.1484 73.0888 45.6276 73.6948 44.9609 74.4108L42.3473 77.2062V77.2971H47.7564V78.5471H40.4155ZM53.7393 78.7062C53.0727 78.7062 52.4723 78.5736 51.9382 78.3085C51.4041 78.0433 50.9761 77.6797 50.6541 77.2176C50.3321 76.7555 50.156 76.2289 50.1257 75.638H51.4893C51.5424 76.1645 51.781 76.6001 52.2053 76.9448C52.6333 77.2858 53.1446 77.4562 53.7393 77.4562C54.2166 77.4562 54.6409 77.3445 55.0121 77.121C55.3871 76.8975 55.6806 76.5907 55.8928 76.2005C56.1087 75.8066 56.2166 75.3615 56.2166 74.8653C56.2166 74.3577 56.1049 73.9051 55.8814 73.5073C55.6617 73.1058 55.3587 72.7895 54.9723 72.5585C54.5859 72.3274 54.1446 72.21 53.6484 72.2062C53.2924 72.2024 52.9268 72.2573 52.5518 72.371C52.1768 72.4808 51.8681 72.6229 51.6257 72.7971L50.3075 72.638L51.0121 66.9108H57.0575V68.1608H52.1939L51.7848 71.5926H51.853C52.0916 71.4032 52.3909 71.246 52.7507 71.121C53.1106 70.996 53.4856 70.9335 53.8757 70.9335C54.5878 70.9335 55.2223 71.1039 55.7791 71.4448C56.3397 71.782 56.7791 72.2441 57.0973 72.8312C57.4193 73.4183 57.5803 74.0888 57.5803 74.8426C57.5803 75.585 57.4136 76.2479 57.0803 76.8312C56.7507 77.4108 56.2962 77.8691 55.7166 78.2062C55.1371 78.5395 54.478 78.7062 53.7393 78.7062ZM60.3999 78.638C60.1196 78.638 59.879 78.5376 59.6783 78.3369C59.4775 78.1361 59.3771 77.8956 59.3771 77.6153C59.3771 77.335 59.4775 77.0945 59.6783 76.8937C59.879 76.693 60.1196 76.5926 60.3999 76.5926C60.6802 76.5926 60.9207 76.693 61.1214 76.8937C61.3222 77.0945 61.4226 77.335 61.4226 77.6153C61.4226 77.8009 61.3752 77.9714 61.2805 78.1267C61.1896 78.282 61.0665 78.407 60.9112 78.5017C60.7597 78.5926 60.5893 78.638 60.3999 78.638ZM68.9879 78.5471H67.5107L71.7834 66.9108H73.2379L77.5107 78.5471H76.0334L72.5561 68.7517H72.4652L68.9879 78.5471ZM69.5334 74.0017H75.4879V75.2517H69.5334V74.0017ZM80.4822 66.9108V78.5471H79.1413V66.9108H80.4822ZM84.2791 66.9108V78.5471H82.9382V66.9108H84.2791ZM91.2351 78.5471V69.8198H92.5305V71.138H92.6214C92.7805 70.7062 93.0684 70.3558 93.4851 70.0869C93.9018 69.818 94.3714 69.6835 94.8942 69.6835C94.9927 69.6835 95.1158 69.6854 95.2635 69.6892C95.4112 69.693 95.523 69.6986 95.5987 69.7062V71.0698C95.5533 71.0585 95.4491 71.0414 95.2862 71.0187C95.1271 70.9922 94.9586 70.9789 94.7805 70.9789C94.3563 70.9789 93.9775 71.068 93.6442 71.246C93.3146 71.4202 93.0533 71.6626 92.8601 71.9733C92.6707 72.2801 92.576 72.6305 92.576 73.0244V78.5471H91.2351ZM97.1882 78.5471V69.8198H98.5291V78.5471H97.1882ZM97.87 68.3653C97.6087 68.3653 97.3833 68.2763 97.1939 68.0983C97.0083 67.9202 96.9155 67.7062 96.9155 67.4562C96.9155 67.2062 97.0083 66.9922 97.1939 66.8142C97.3833 66.6361 97.6087 66.5471 97.87 66.5471C98.1314 66.5471 98.3549 66.6361 98.5405 66.8142C98.7299 66.9922 98.8246 67.2062 98.8246 67.4562C98.8246 67.7062 98.7299 67.9202 98.5405 68.0983C98.3549 68.2763 98.1314 68.3653 97.87 68.3653ZM104.508 82.0017C103.86 82.0017 103.303 81.9183 102.837 81.7517C102.371 81.5888 101.983 81.3729 101.673 81.1039C101.366 80.8388 101.121 80.5547 100.94 80.2517L102.008 79.5017C102.129 79.6608 102.282 79.8426 102.468 80.0471C102.654 80.2555 102.907 80.4354 103.229 80.5869C103.555 80.7422 103.981 80.8198 104.508 80.8198C105.212 80.8198 105.794 80.6494 106.252 80.3085C106.71 79.9676 106.94 79.4335 106.94 78.7062V76.9335H106.826C106.728 77.0926 106.587 77.2895 106.406 77.5244C106.228 77.7555 105.97 77.9619 105.633 78.1437C105.299 78.3217 104.849 78.4108 104.281 78.4108C103.576 78.4108 102.943 78.2441 102.383 77.9108C101.826 77.5774 101.385 77.0926 101.059 76.4562C100.737 75.8198 100.576 75.0471 100.576 74.138C100.576 73.2441 100.733 72.4657 101.048 71.8028C101.362 71.1361 101.799 70.621 102.36 70.2573C102.921 69.8899 103.568 69.7062 104.303 69.7062C104.871 69.7062 105.322 69.8009 105.656 69.9903C105.993 70.1759 106.25 70.388 106.428 70.6267C106.61 70.8615 106.75 71.0547 106.849 71.2062H106.985V69.8198H108.281V78.7971C108.281 79.5471 108.11 80.157 107.769 80.6267C107.432 81.1001 106.978 81.4467 106.406 81.6664C105.837 81.8899 105.205 82.0017 104.508 82.0017ZM104.462 77.2062C105 77.2062 105.455 77.0831 105.826 76.8369C106.197 76.5907 106.479 76.2365 106.673 75.7744C106.866 75.3123 106.962 74.7592 106.962 74.1153C106.962 73.4865 106.868 72.9316 106.678 72.4505C106.489 71.9695 106.209 71.5926 105.837 71.3198C105.466 71.0471 105.008 70.9108 104.462 70.9108C103.894 70.9108 103.421 71.0547 103.042 71.3426C102.667 71.6305 102.385 72.0168 102.195 72.5017C102.01 72.9865 101.917 73.5244 101.917 74.1153C101.917 74.7214 102.012 75.2573 102.201 75.7233C102.394 76.1854 102.678 76.549 103.053 76.8142C103.432 77.0755 103.902 77.2062 104.462 77.2062ZM112.076 73.2971V78.5471H110.735V66.9108H112.076V71.1835H112.19C112.394 70.7327 112.701 70.3748 113.11 70.1096C113.523 69.8407 114.072 69.7062 114.758 69.7062C115.353 69.7062 115.873 69.8255 116.32 70.0642C116.767 70.299 117.114 70.6608 117.36 71.1494C117.61 71.6342 117.735 72.2517 117.735 73.0017V78.5471H116.394V73.0926C116.394 72.3994 116.214 71.8634 115.854 71.4846C115.498 71.102 115.004 70.9108 114.371 70.9108C113.932 70.9108 113.538 71.0036 113.19 71.1892C112.845 71.3748 112.572 71.6456 112.371 72.0017C112.174 72.3577 112.076 72.7895 112.076 73.2971ZM123.984 69.8198V70.9562H119.461V69.8198H123.984ZM120.779 67.7289H122.12V76.0471C122.12 76.4259 122.175 76.71 122.285 76.8994C122.398 77.085 122.542 77.21 122.717 77.2744C122.895 77.335 123.082 77.3653 123.279 77.3653C123.427 77.3653 123.548 77.3577 123.643 77.3426C123.737 77.3236 123.813 77.3085 123.87 77.2971L124.143 78.5017C124.052 78.5358 123.925 78.5698 123.762 78.6039C123.599 78.6418 123.393 78.6608 123.143 78.6608C122.764 78.6608 122.393 78.5793 122.029 78.4164C121.669 78.2536 121.37 78.0055 121.131 77.6721C120.897 77.3388 120.779 76.9183 120.779 76.4108V67.7289ZM132.026 71.7744L130.822 72.1153C130.746 71.9145 130.634 71.7195 130.487 71.5301C130.343 71.3369 130.146 71.1778 129.896 71.0528C129.646 70.9278 129.326 70.8653 128.935 70.8653C128.401 70.8653 127.956 70.9884 127.6 71.2346C127.248 71.477 127.072 71.7858 127.072 72.1608C127.072 72.4941 127.193 72.7573 127.435 72.9505C127.678 73.1437 128.057 73.3047 128.572 73.4335L129.867 73.7517C130.647 73.9411 131.229 74.2308 131.612 74.621C131.994 75.0073 132.185 75.5055 132.185 76.1153C132.185 76.6153 132.041 77.0623 131.754 77.4562C131.469 77.8501 131.072 78.1608 130.56 78.388C130.049 78.6153 129.454 78.7289 128.776 78.7289C127.886 78.7289 127.149 78.5358 126.566 78.1494C125.983 77.763 125.613 77.1986 125.458 76.4562L126.731 76.138C126.852 76.6077 127.081 76.96 127.418 77.1948C127.759 77.4297 128.204 77.5471 128.754 77.5471C129.379 77.5471 129.875 77.4145 130.242 77.1494C130.613 76.8805 130.799 76.5585 130.799 76.1835C130.799 75.8805 130.693 75.6267 130.481 75.4221C130.269 75.2138 129.943 75.0585 129.504 74.9562L128.049 74.6153C127.25 74.4259 126.663 74.1323 126.288 73.7346C125.916 73.3331 125.731 72.8312 125.731 72.2289C125.731 71.7365 125.869 71.3009 126.146 70.9221C126.426 70.5433 126.807 70.246 127.288 70.0301C127.772 69.8142 128.322 69.7062 128.935 69.7062C129.799 69.7062 130.477 69.8956 130.969 70.2744C131.466 70.6532 131.818 71.1532 132.026 71.7744ZM138.704 78.5471V69.8198H139.999V71.138H140.09C140.249 70.7062 140.537 70.3558 140.954 70.0869C141.371 69.818 141.84 69.6835 142.363 69.6835C142.461 69.6835 142.585 69.6854 142.732 69.6892C142.88 69.693 142.992 69.6986 143.067 69.7062V71.0698C143.022 71.0585 142.918 71.0414 142.755 71.0187C142.596 70.9922 142.427 70.9789 142.249 70.9789C141.825 70.9789 141.446 71.068 141.113 71.246C140.783 71.4202 140.522 71.6626 140.329 71.9733C140.139 72.2801 140.045 72.6305 140.045 73.0244V78.5471H138.704ZM148.05 78.7289C147.21 78.7289 146.484 78.5433 145.874 78.1721C145.268 77.7971 144.8 77.2744 144.471 76.6039C144.145 75.9297 143.982 75.1456 143.982 74.2517C143.982 73.3577 144.145 72.5698 144.471 71.888C144.8 71.2024 145.259 70.6683 145.846 70.2858C146.437 69.8994 147.126 69.7062 147.914 69.7062C148.369 69.7062 148.817 69.782 149.261 69.9335C149.704 70.085 150.107 70.3312 150.471 70.6721C150.835 71.0092 151.124 71.4562 151.34 72.013C151.556 72.5698 151.664 73.2555 151.664 74.0698V74.638H144.937V73.4789H150.3C150.3 72.9865 150.202 72.5471 150.005 72.1608C149.812 71.7744 149.535 71.4695 149.175 71.246C148.819 71.0225 148.399 70.9108 147.914 70.9108C147.38 70.9108 146.918 71.0433 146.528 71.3085C146.141 71.5698 145.844 71.9108 145.636 72.3312C145.427 72.7517 145.323 73.2024 145.323 73.6835V74.4562C145.323 75.1153 145.437 75.674 145.664 76.1323C145.895 76.5869 146.215 76.9335 146.624 77.1721C147.033 77.407 147.509 77.5244 148.05 77.5244C148.403 77.5244 148.721 77.4751 149.005 77.3767C149.293 77.2744 149.541 77.1229 149.749 76.9221C149.958 76.7176 150.119 76.4638 150.232 76.1608L151.528 76.5244C151.391 76.9638 151.162 77.3501 150.84 77.6835C150.518 78.013 150.121 78.2706 149.647 78.4562C149.174 78.638 148.641 78.7289 148.05 78.7289ZM159.886 71.7744L158.681 72.1153C158.605 71.9145 158.494 71.7195 158.346 71.5301C158.202 71.3369 158.005 71.1778 157.755 71.0528C157.505 70.9278 157.185 70.8653 156.795 70.8653C156.261 70.8653 155.816 70.9884 155.46 71.2346C155.107 71.477 154.931 71.7858 154.931 72.1608C154.931 72.4941 155.052 72.7573 155.295 72.9505C155.537 73.1437 155.916 73.3047 156.431 73.4335L157.727 73.7517C158.507 73.9411 159.088 74.2308 159.471 74.621C159.853 75.0073 160.045 75.5055 160.045 76.1153C160.045 76.6153 159.901 77.0623 159.613 77.4562C159.329 77.8501 158.931 78.1608 158.42 78.388C157.908 78.6153 157.314 78.7289 156.636 78.7289C155.746 78.7289 155.009 78.5358 154.425 78.1494C153.842 77.763 153.473 77.1986 153.317 76.4562L154.59 76.138C154.711 76.6077 154.941 76.96 155.278 77.1948C155.619 77.4297 156.064 77.5471 156.613 77.5471C157.238 77.5471 157.734 77.4145 158.102 77.1494C158.473 76.8805 158.658 76.5585 158.658 76.1835C158.658 75.8805 158.552 75.6267 158.34 75.4221C158.128 75.2138 157.802 75.0585 157.363 74.9562L155.908 74.6153C155.109 74.4259 154.522 74.1323 154.147 73.7346C153.776 73.3331 153.59 72.8312 153.59 72.2289C153.59 71.7365 153.728 71.3009 154.005 70.9221C154.285 70.5433 154.666 70.246 155.147 70.0301C155.632 69.8142 156.181 69.7062 156.795 69.7062C157.658 69.7062 158.336 69.8956 158.829 70.2744C159.325 70.6532 159.677 71.1532 159.886 71.7744ZM165.722 78.7289C164.881 78.7289 164.156 78.5433 163.546 78.1721C162.94 77.7971 162.472 77.2744 162.143 76.6039C161.817 75.9297 161.654 75.1456 161.654 74.2517C161.654 73.3577 161.817 72.5698 162.143 71.888C162.472 71.2024 162.931 70.6683 163.518 70.2858C164.109 69.8994 164.798 69.7062 165.586 69.7062C166.04 69.7062 166.489 69.782 166.933 69.9335C167.376 70.085 167.779 70.3312 168.143 70.6721C168.506 71.0092 168.796 71.4562 169.012 72.013C169.228 72.5698 169.336 73.2555 169.336 74.0698V74.638H162.609V73.4789H167.972C167.972 72.9865 167.874 72.5471 167.677 72.1608C167.484 71.7744 167.207 71.4695 166.847 71.246C166.491 71.0225 166.071 70.9108 165.586 70.9108C165.052 70.9108 164.59 71.0433 164.2 71.3085C163.813 71.5698 163.516 71.9108 163.308 72.3312C163.099 72.7517 162.995 73.2024 162.995 73.6835V74.4562C162.995 75.1153 163.109 75.674 163.336 76.1323C163.567 76.5869 163.887 76.9335 164.296 77.1721C164.705 77.407 165.181 77.5244 165.722 77.5244C166.075 77.5244 166.393 77.4751 166.677 77.3767C166.965 77.2744 167.213 77.1229 167.421 76.9221C167.629 76.7176 167.79 76.4638 167.904 76.1608L169.2 76.5244C169.063 76.9638 168.834 77.3501 168.512 77.6835C168.19 78.013 167.792 78.2706 167.319 78.4562C166.845 78.638 166.313 78.7289 165.722 78.7289ZM171.376 78.5471V69.8198H172.671V71.138H172.762C172.921 70.7062 173.209 70.3558 173.626 70.0869C174.042 69.818 174.512 69.6835 175.035 69.6835C175.133 69.6835 175.256 69.6854 175.404 69.6892C175.552 69.693 175.664 69.6986 175.739 69.7062V71.0698C175.694 71.0585 175.59 71.0414 175.427 71.0187C175.268 70.9922 175.099 70.9789 174.921 70.9789C174.497 70.9789 174.118 71.068 173.785 71.246C173.455 71.4202 173.194 71.6626 173.001 71.9733C172.811 72.2801 172.717 72.6305 172.717 73.0244V78.5471H171.376ZM184.731 69.8198L181.504 78.5471H180.14L176.913 69.8198H178.367L180.776 76.7744H180.867L183.276 69.8198H184.731ZM189.847 78.7289C189.006 78.7289 188.281 78.5433 187.671 78.1721C187.065 77.7971 186.597 77.2744 186.268 76.6039C185.942 75.9297 185.779 75.1456 185.779 74.2517C185.779 73.3577 185.942 72.5698 186.268 71.888C186.597 71.2024 187.056 70.6683 187.643 70.2858C188.234 69.8994 188.923 69.7062 189.711 69.7062C190.165 69.7062 190.614 69.782 191.058 69.9335C191.501 70.085 191.904 70.3312 192.268 70.6721C192.631 71.0092 192.921 71.4562 193.137 72.013C193.353 72.5698 193.461 73.2555 193.461 74.0698V74.638H186.734V73.4789H192.097C192.097 72.9865 191.999 72.5471 191.802 72.1608C191.609 71.7744 191.332 71.4695 190.972 71.246C190.616 71.0225 190.196 70.9108 189.711 70.9108C189.177 70.9108 188.715 71.0433 188.325 71.3085C187.938 71.5698 187.641 71.9108 187.433 72.3312C187.224 72.7517 187.12 73.2024 187.12 73.6835V74.4562C187.12 75.1153 187.234 75.674 187.461 76.1323C187.692 76.5869 188.012 76.9335 188.421 77.1721C188.83 77.407 189.306 77.5244 189.847 77.5244C190.2 77.5244 190.518 77.4751 190.802 77.3767C191.09 77.2744 191.338 77.1229 191.546 76.9221C191.754 76.7176 191.915 76.4638 192.029 76.1608L193.325 76.5244C193.188 76.9638 192.959 77.3501 192.637 77.6835C192.315 78.013 191.917 78.2706 191.444 78.4562C190.97 78.638 190.438 78.7289 189.847 78.7289ZM198.796 78.7289C198.069 78.7289 197.427 78.5452 196.87 78.1778C196.313 77.8066 195.878 77.2839 195.563 76.6096C195.249 75.9316 195.092 75.1305 195.092 74.2062C195.092 73.2895 195.249 72.4941 195.563 71.8198C195.878 71.1456 196.315 70.6248 196.876 70.2573C197.436 69.8899 198.084 69.7062 198.819 69.7062C199.387 69.7062 199.836 69.8009 200.165 69.9903C200.499 70.1759 200.753 70.388 200.927 70.6267C201.105 70.8615 201.243 71.0547 201.342 71.2062H201.455V66.9108H202.796V78.5471H201.501V77.2062H201.342C201.243 77.3653 201.103 77.5661 200.921 77.8085C200.739 78.0471 200.48 78.2611 200.143 78.4505C199.806 78.6361 199.357 78.7289 198.796 78.7289ZM198.978 77.5244C199.516 77.5244 199.97 77.3842 200.342 77.1039C200.713 76.8198 200.995 76.4278 201.188 75.9278C201.381 75.424 201.478 74.8426 201.478 74.1835C201.478 73.532 201.383 72.9619 201.194 72.4733C201.004 71.9808 200.724 71.5983 200.353 71.3255C199.982 71.049 199.523 70.9108 198.978 70.9108C198.41 70.9108 197.936 71.0566 197.558 71.3483C197.183 71.6361 196.9 72.0282 196.711 72.5244C196.525 73.0168 196.433 73.5698 196.433 74.1835C196.433 74.8047 196.527 75.3691 196.717 75.8767C196.91 76.3805 197.194 76.782 197.569 77.0812C197.948 77.3767 198.417 77.5244 198.978 77.5244ZM206.415 78.638C206.135 78.638 205.895 78.5376 205.694 78.3369C205.493 78.1361 205.393 77.8956 205.393 77.6153C205.393 77.335 205.493 77.0945 205.694 76.8937C205.895 76.693 206.135 76.5926 206.415 76.5926C206.696 76.5926 206.936 76.693 207.137 76.8937C207.338 77.0945 207.438 77.335 207.438 77.6153C207.438 77.8009 207.391 77.9714 207.296 78.1267C207.205 78.282 207.082 78.407 206.927 78.5017C206.775 78.5926 206.605 78.638 206.415 78.638Z" fill="#D0DAF5"/>
<path d="M61.8621 120.5H59.2772C59.2772 124.607 59.2772 129.663 59.2772 129.663H55.4468C55.4468 129.663 55.4468 124.656 55.4468 120.5H53.626V117.261H55.4468V115.167C55.4468 113.666 56.1636 111.322 59.3124 111.322L62.1508 111.333V114.477C62.1508 114.477 60.426 114.477 60.0906 114.477C59.7553 114.477 59.2785 114.643 59.2785 115.359V117.262H62.1969L61.8621 120.5Z" fill="#D0DAF5"/>
<path d="M106.41 116.601L106.422 117.107C106.422 122.281 102.465 128.24 95.2277 128.24C93.0065 128.24 90.9391 127.593 89.1973 126.482C89.5049 126.518 89.8185 126.538 90.1361 126.538C91.9798 126.538 93.6757 125.912 95.022 124.863C93.3002 124.831 91.8479 123.699 91.3466 122.145C91.5883 122.191 91.832 122.213 92.0876 122.213C92.4472 122.213 92.7947 122.167 93.1243 122.078C91.3246 121.716 89.9683 120.137 89.9683 118.242V118.192C90.4996 118.486 91.1048 118.661 91.75 118.683C90.6954 117.982 90.0002 116.784 90.0002 115.427C90.0002 114.71 90.194 114.038 90.5315 113.46C92.4711 115.828 95.3715 117.386 98.6414 117.549C98.5735 117.262 98.5396 116.962 98.5396 116.657C98.5396 114.497 100.301 112.745 102.475 112.745C103.605 112.745 104.628 113.22 105.347 113.981C106.242 113.804 107.085 113.478 107.846 113.031C107.552 113.945 106.929 114.712 106.116 115.196C106.909 115.103 107.67 114.89 108.375 114.58C107.848 115.363 107.179 116.053 106.41 116.601Z" fill="#D0DAF5"/>
<path fill-rule="evenodd" clip-rule="evenodd" d="M141.252 110.607C142.318 110.559 142.659 110.547 145.375 110.547C148.091 110.547 148.432 110.559 149.498 110.607C151.123 110.681 152.551 111.077 153.697 112.216C154.843 113.356 155.241 114.776 155.315 116.392C155.363 117.453 155.375 117.792 155.375 120.493C155.375 123.194 155.363 123.533 155.315 124.593C155.241 126.21 154.843 127.629 153.697 128.769C152.551 129.909 151.123 130.305 149.498 130.378C148.432 130.427 148.091 130.438 145.375 130.438C142.659 130.438 142.318 130.427 141.252 130.378C139.627 130.305 138.199 129.909 137.053 128.769C135.907 127.629 135.509 126.21 135.435 124.593C135.387 123.533 135.375 123.194 135.375 120.493C135.375 117.792 135.387 117.453 135.435 116.392C135.509 114.776 135.907 113.356 137.053 112.216C138.199 111.077 139.627 110.681 141.252 110.607ZM149.415 112.397C148.361 112.349 148.044 112.339 145.374 112.339C142.704 112.339 142.387 112.349 141.333 112.397C140.195 112.449 139.139 112.676 138.327 113.484C137.514 114.292 137.286 115.342 137.234 116.474C137.186 117.522 137.176 117.837 137.176 120.493C137.176 123.148 137.186 123.463 137.234 124.512C137.286 125.644 137.514 126.694 138.327 127.502C139.139 128.31 140.195 128.537 141.333 128.588C142.387 128.636 142.704 128.646 145.374 128.646C148.044 128.646 148.361 128.636 149.415 128.588C150.553 128.537 151.609 128.31 152.422 127.502C153.234 126.694 153.462 125.644 153.514 124.512C153.562 123.463 153.572 123.148 153.572 120.493C153.572 117.837 153.562 117.522 153.514 116.474C153.462 115.342 153.234 114.292 152.422 113.484C151.609 112.676 150.553 112.449 149.415 112.397ZM140.238 120.492C140.238 117.672 142.537 115.385 145.373 115.385C148.209 115.385 150.508 117.672 150.508 120.492C150.508 123.312 148.209 125.599 145.373 125.599C142.537 125.599 140.238 123.312 140.238 120.492ZM142.039 120.492C142.039 122.323 143.532 123.807 145.372 123.807C147.213 123.807 148.706 122.323 148.706 120.492C148.706 118.661 147.213 117.177 145.372 117.177C143.532 117.177 142.039 118.661 142.039 120.492ZM151.912 115.184C151.912 115.843 151.374 116.377 150.712 116.377C150.049 116.377 149.512 115.843 149.512 115.184C149.512 114.525 150.049 113.99 150.712 113.99C151.374 113.99 151.912 114.525 151.912 115.184Z" fill="#D0DAF5"/>
<defs>
<clipPath id="clip0_543_1998">
<rect width="41.9501" height="33.5471" fill="white" transform="translate(26.5 1)"/>
</clipPath>
</defs>
</svg>
