<svg width="247" height="151" viewBox="0 0 247 151" fill="none" xmlns="http://www.w3.org/2000/svg">
<g clip-path="url(#clip0_365_1228)">
<mask id="mask0_365_1228" style="mask-type:luminance" maskUnits="userSpaceOnUse" x="22" y="14" width="23" height="25">
<path d="M44.944 14.5918H22.3096V38.6093H44.944V14.5918Z" fill="white"/>
</mask>
<g mask="url(#mask0_365_1228)">
<path d="M38.0601 19.2931C37.0724 16.4455 35.5316 14.6942 34.0751 14.5966C32.5948 14.4939 30.8301 16.05 29.4816 18.7437C27.9598 18.4462 26.6144 18.406 25.55 18.5905C25.7086 18.8043 25.8267 19.0485 25.893 19.3122C26.7644 19.1938 27.8714 19.23 29.1445 19.4627C29.4026 19.5115 29.666 19.5654 29.9373 19.627C30.7695 19.8247 31.6599 20.0995 32.5922 20.4642C32.9478 20.6001 33.3086 20.7543 33.6748 20.9185C34.2437 21.1754 34.8284 21.4656 35.4183 21.7891C35.6079 21.8943 35.8477 21.8276 35.9557 21.6428C36.0636 21.4553 35.9952 21.2216 35.8054 21.1163C35.4736 20.9341 35.1443 20.762 34.8152 20.6001C34.4517 20.4204 34.0909 20.251 33.7327 20.0969C32.529 19.573 31.3675 19.1828 30.2824 18.9183C31.4939 16.5816 32.9741 15.3028 34.0224 15.367C35.0575 15.4364 36.3534 16.8846 37.2488 19.3676C37.3358 19.609 37.42 19.8581 37.4964 20.1174C37.7413 20.916 37.9417 21.807 38.0837 22.7752C38.1391 23.1449 38.1865 23.525 38.2209 23.9179C38.2787 24.5264 38.3129 25.1632 38.3208 25.8257C38.3234 26.0363 38.4999 26.2057 38.7159 26.2057H38.7211C38.9373 26.2032 39.1136 26.0311 39.111 25.8179C39.1085 25.4456 39.0953 25.081 39.0741 24.7215C39.053 24.3236 39.0214 23.9332 38.9793 23.5532C38.8451 22.2744 38.6105 21.0984 38.2999 20.0481C39.7766 19.9675 41.0101 20.1156 41.8984 20.4189C42.045 20.1831 42.2386 19.9777 42.466 19.8151C41.3835 19.3691 39.86 19.1724 38.0601 19.2931ZM29.3131 33.1466C29.2287 32.9051 29.1445 32.6561 29.0681 32.3968C28.8232 31.5957 28.6229 30.7072 28.4808 29.7364C28.4255 29.3667 28.3806 28.9867 28.3437 28.5963C28.2859 27.9877 28.2543 27.351 28.2463 26.691C28.2437 26.4779 28.0646 26.3162 27.846 26.311C27.6273 26.311 27.4535 26.4856 27.4561 26.6988C27.4615 27.0711 27.472 27.4357 27.493 27.7927C27.5142 28.1906 27.5457 28.581 27.5878 28.961C27.7221 30.2398 27.9566 31.4157 28.2675 32.4661C25.5835 32.6125 23.7029 32.0039 23.2394 31.0794C22.7812 30.1703 23.4211 28.3524 25.1806 26.352C25.349 26.1595 25.5282 25.9644 25.7204 25.7693C26.3079 25.1632 26.9979 24.5469 27.7907 23.9435C28.0909 23.7098 28.407 23.4812 28.7388 23.2554C29.2499 22.901 29.7977 22.5568 30.3798 22.2205C30.5668 22.1127 30.63 21.8764 30.5194 21.6942C30.4087 21.5092 30.1664 21.4501 29.9768 21.558C29.6502 21.748 29.3315 21.9406 29.0234 22.1357C28.681 22.3541 28.3517 22.5749 28.0356 22.8009C26.9662 23.5506 26.0391 24.3389 25.2622 25.1247C24.4469 23.9138 23.9607 22.7941 23.7881 21.8907C23.496 21.8867 23.2179 21.8254 22.9651 21.7177C23.1087 22.8565 23.6972 24.2446 24.7091 25.7076C22.673 27.9648 21.8856 30.1396 22.5283 31.4184C23.105 32.5662 24.9435 33.2568 27.4852 33.2568C27.8143 33.2568 28.1542 33.2468 28.5071 33.221C29.0405 34.7631 29.7369 35.9844 30.4946 36.7953C30.5805 36.5304 30.7194 36.2884 30.8989 36.0811C30.3251 35.3986 29.7681 34.4056 29.3131 33.1466ZM43.9597 23.5653C43.8831 23.5735 43.8053 23.5777 43.7265 23.5777C43.5249 23.5777 43.3296 23.5503 43.1445 23.4991C42.8128 24.2922 42.2276 25.2061 41.3866 26.1622C41.218 26.3547 41.0389 26.5498 40.8468 26.7449C40.2566 27.3509 39.5692 27.9673 38.7765 28.5732C38.4762 28.8044 38.1601 29.0355 37.8283 29.2615C37.3173 29.6132 36.7695 29.9599 36.1874 30.2962C35.9978 30.4042 35.9371 30.6403 36.0479 30.8227C36.1215 30.9434 36.2532 31.0127 36.3875 31.0127C36.456 31.0127 36.5246 30.9947 36.5877 30.9587C36.9169 30.7687 37.2356 30.5762 37.544 30.3784C37.8862 30.1628 38.2128 29.9418 38.5289 29.7159H38.5315C39.601 28.9635 40.5281 28.1752 41.3049 27.3895C42.7774 29.5825 43.1777 31.4749 42.5902 32.3273C42.0081 33.1697 40.0751 33.5368 37.4174 33.0541C37.162 33.0054 36.8986 32.9513 36.63 32.8898C35.8002 32.6945 34.91 32.4198 33.9777 32.0527H33.9749C33.6195 31.9166 33.2559 31.7625 32.8872 31.5957C32.3182 31.3415 31.7389 31.0512 31.1488 30.7276C30.9593 30.6224 30.7168 30.6891 30.6115 30.874C30.5035 31.0589 30.5693 31.2952 30.7617 31.3978C31.0936 31.5802 31.4228 31.7522 31.7521 31.914C32.1181 32.0963 32.4816 32.2631 32.8398 32.4198C34.0408 32.9437 35.1998 33.334 36.2849 33.5985C35.6717 34.7822 34.99 35.695 34.3301 36.2991C34.4803 36.527 34.5864 36.7851 34.636 37.0619C35.4987 36.3541 36.3511 35.2309 37.0803 33.7731C37.9944 33.9528 38.8451 34.0375 39.6114 34.0375C41.3736 34.0375 42.6773 33.5831 43.2436 32.7587C44.0706 31.5596 43.5753 29.2922 41.858 26.8091C42.8836 25.6724 43.5916 24.5563 43.9597 23.5653Z" fill="#96E363"/>
<path d="M34.5083 25.0236C34.5083 25.0236 34.5061 25.0241 34.5049 25.0243C34.5056 25.0236 34.5065 25.0229 34.5072 25.0222C34.5081 25.022 34.5091 25.0217 34.51 25.0215C34.5095 25.0222 34.5091 25.0226 34.5083 25.0234V25.0236Z" fill="#96E363"/>
<path d="M34.5088 25.0206C34.5088 25.0206 34.5095 25.0197 34.5099 25.0195C34.5095 25.0199 34.5093 25.0201 34.509 25.0206H34.5088Z" fill="#96E363"/>
<path d="M33.2825 22.5625C31.1892 22.5625 29.4922 24.2166 29.4922 26.257C29.4922 28.2974 31.1892 29.9514 33.2825 29.9514C35.3758 29.9514 37.0727 28.2974 37.0727 26.257C37.0727 24.2166 35.3758 22.5625 33.2825 22.5625ZM35.5019 24.3887C35.4309 24.7771 35.3445 25.1621 35.2292 25.5405C35.1053 25.9468 34.9529 26.3419 34.733 26.7097C34.5327 27.0444 34.2851 27.3378 33.9479 27.5521C33.6993 27.7098 33.4266 27.8112 33.135 27.8561C32.8916 27.8936 32.6454 27.9125 32.4005 27.9396C32.38 27.9418 32.3587 27.9467 32.3385 27.9442C32.2708 27.9357 32.2434 27.9737 32.2169 28.0267C32.0869 28.2869 32.0252 28.5622 32.0175 28.8495C32.0151 28.9394 32.0229 29.0295 32.0261 29.1195C32.0264 29.1312 32.0261 29.1428 32.0261 29.1602C31.9373 29.1131 31.8523 29.0683 31.7676 29.0233C31.7105 28.9928 31.6545 28.9601 31.5962 28.9322C31.5651 28.9174 31.5605 28.8989 31.5648 28.8683C31.6048 28.5799 31.6835 28.3015 31.7918 28.0309C31.9429 27.654 32.1221 27.2901 32.3412 26.9454C32.6469 26.4649 33.0391 26.062 33.506 25.7281C33.823 25.5013 34.145 25.2812 34.4644 25.0579C34.4791 25.0476 34.4918 25.0346 34.5055 25.0228C34.4929 25.0252 34.4799 25.0261 34.4685 25.0307C33.9642 25.2382 33.4796 25.4809 33.0333 25.7912C32.5979 26.094 32.2166 26.4492 31.9255 26.8894C31.7598 27.1401 31.6316 27.4077 31.5448 27.6936C31.5409 27.7062 31.5369 27.7189 31.53 27.7412C31.5236 27.717 31.519 27.7021 31.5155 27.6867C31.4533 27.4095 31.4158 27.1296 31.4225 26.8455C31.4307 26.5034 31.5005 26.1752 31.665 25.8692C31.8091 25.6008 32.0094 25.3787 32.2527 25.1918C32.5808 24.9399 32.9531 24.7689 33.3445 24.6342C33.8635 24.4556 34.4001 24.346 34.9413 24.2549C35.1324 24.2227 35.324 24.1933 35.5154 24.1625C35.5219 24.1615 35.5284 24.161 35.5412 24.1595C35.5277 24.2385 35.5157 24.3138 35.5019 24.3887Z" fill="#96E363"/>
<path d="M33.7494 37.423C33.7494 37.5012 33.7416 37.5778 33.7266 37.6518C33.617 38.1971 33.1231 38.6097 32.5319 38.6097C31.8863 38.6097 31.3564 38.1174 31.3169 37.4977C31.3152 37.473 31.3145 37.448 31.3145 37.423C31.3145 37.1598 31.4028 36.9163 31.5521 36.7195C31.7739 36.4267 32.1306 36.2363 32.5319 36.2363C32.99 36.2363 33.3897 36.4839 33.5973 36.8492C33.6943 37.0194 33.7494 37.2151 33.7494 37.423Z" fill="#96E363"/>
<path d="M44.9437 21.4953C44.9437 21.9788 44.6457 22.3956 44.2193 22.5802C44.0686 22.6457 43.9016 22.682 43.7262 22.682C43.6186 22.682 43.514 22.6683 43.4145 22.6425C42.8936 22.508 42.5088 22.0448 42.5088 21.4953C42.5088 21.2413 42.5911 21.0055 42.7312 20.8124C42.8921 20.59 43.1298 20.4237 43.4063 20.3502C43.5082 20.3231 43.6156 20.3086 43.7262 20.3086C44.3976 20.3086 44.9437 20.8409 44.9437 21.4953Z" fill="#96E363"/>
<path d="M25.0356 19.8078C25.0356 20.4622 24.4894 20.9945 23.8181 20.9945C23.7864 20.9945 23.755 20.9933 23.7239 20.9911C23.4328 20.9691 23.17 20.8472 22.972 20.6603C22.743 20.4444 22.6006 20.142 22.6006 19.8078C22.6006 19.1534 23.1467 18.6211 23.8181 18.6211C24.0928 18.6211 24.3466 18.7102 24.5504 18.8605C24.7676 19.0202 24.9284 19.2492 24.9976 19.5136C25.0224 19.6078 25.0356 19.7063 25.0356 19.8078Z" fill="#96E363"/>
</g>
<path d="M64.988 18.8944L60.8843 32.1874H56.55L52.4463 18.8944H55.9173L57.3938 24.0287C57.9181 25.7463 58.3526 27.4888 58.6978 29.2562H58.7361C59.0431 27.7004 59.4776 25.9579 60.0401 24.0287L61.5361 18.8944H64.988ZM74.4637 32.1874L73.6008 29.3683H68.653L67.771 32.1874H64.2805L68.9409 18.8944H73.2939L77.9538 32.1874H74.4637ZM69.4776 26.7171H72.7953L72.5078 25.821C71.9578 24.0535 71.4975 22.4417 71.1269 20.9855H71.0887C70.7049 22.5288 70.2574 24.1407 69.746 25.821L69.4776 26.7171ZM82.3708 18.8944V29.4429H88.5456V32.1874H79.0531V18.8944H82.3708ZM99.8232 18.8944V21.6016H93.4948V24.122H99.4015V26.7918H93.4948V29.4803H99.9768V32.1874H90.1771V18.8944H99.8232ZM114.797 18.8944V32.1874H110.002L107.624 26.9411C106.78 25.0866 106.039 23.313 105.4 21.6202H105.361C105.464 23.6117 105.515 25.4787 105.515 27.2212V32.1874H102.332V18.8944H107.107L109.504 24.1407C110.347 26.045 111.089 27.8186 111.728 29.4616H111.767C111.664 27.8062 111.613 25.9392 111.613 23.8606V18.8944H114.797ZM123.269 18.5957C125.033 18.5957 126.446 19.0562 127.507 19.9773C128.581 20.8859 129.15 22.1181 129.214 23.6739H125.781C125.704 22.952 125.442 22.3919 124.995 21.9936C124.56 21.5954 123.985 21.3962 123.269 21.3962C122.361 21.3962 121.645 21.7696 121.121 22.5164C120.61 23.2507 120.354 24.2589 120.354 25.5409C120.354 26.8229 120.61 27.8373 121.121 28.5841C121.645 29.3185 122.348 29.6856 123.23 29.6856C123.946 29.6856 124.528 29.4803 124.975 29.0695C125.436 28.6588 125.71 28.08 125.8 27.3332H129.271C129.143 28.9762 128.542 30.2457 127.468 31.1419C126.395 32.038 124.982 32.4861 123.23 32.4861C121.261 32.4861 119.708 31.87 118.57 30.6378C117.445 29.3931 116.883 27.6942 116.883 25.5409C116.883 23.3876 117.451 21.6949 118.589 20.4627C119.727 19.218 121.287 18.5957 123.269 18.5957ZM141.698 18.8944L137.019 27.1652V32.1874H133.701V27.1652L129.022 18.8944H132.704L133.893 21.3029C134.443 22.4106 134.929 23.5246 135.351 24.6448H135.389C135.772 23.5743 136.252 22.4604 136.827 21.3029L138.016 18.8944H141.698ZM157.242 18.8944V21.6016H150.914V24.122H156.82V26.7918H150.914V29.4803H157.396V32.1874H147.596V18.8944H157.242ZM172.215 18.8944V32.1874H167.421L165.043 26.9411C164.199 25.0866 163.458 23.313 162.819 21.6202H162.78C162.883 23.6117 162.934 25.4787 162.934 27.2212V32.1874H159.75V18.8944H164.526L166.923 24.1407C167.766 26.045 168.508 27.8186 169.147 29.4616H169.186C169.083 27.8062 169.032 25.9392 169.032 23.8606V18.8944H172.215ZM184.753 18.8944V21.6016H178.425V24.122H184.331V26.7918H178.425V29.4803H184.907V32.1874H175.107V18.8944H184.753ZM187.261 32.1874V18.8944H192.804C196.153 18.8944 197.828 20.1578 197.828 22.6844C197.828 23.4934 197.604 24.1842 197.157 24.7568C196.709 25.3169 196.096 25.7089 195.316 25.933V25.9703C195.801 26.1321 196.192 26.4059 196.486 26.7918C196.779 27.1652 197.086 27.7813 197.406 28.6401L198.729 32.1874H195.162L194.127 29.1815C193.884 28.4845 193.596 28.0053 193.264 27.7439C192.944 27.4701 192.465 27.3332 191.825 27.3332H190.579V32.1874H187.261ZM192.266 21.3962H190.579V24.8875H192.401C193.833 24.8875 194.548 24.29 194.548 23.0951C194.548 21.9625 193.788 21.3962 192.266 21.3962ZM205.919 18.5957C207.619 18.5957 208.994 19.0065 210.042 19.8279C211.091 20.637 211.679 21.7385 211.806 23.1325H208.24C208.035 21.9127 207.262 21.3029 205.919 21.3029C204.948 21.3029 204.18 21.6887 203.618 22.4604C203.055 23.2196 202.774 24.2651 202.774 25.5969C202.774 26.9536 203.049 28.024 203.599 28.8081C204.161 29.5923 204.928 29.9844 205.9 29.9844C206.756 29.9844 207.421 29.7479 207.894 29.2749C208.367 28.7895 208.617 28.1049 208.642 27.2212H205.708V24.7195H211.749V32.1874H208.911V30.8432H208.872C208.054 31.9136 206.788 32.4488 205.075 32.4488C203.298 32.4488 201.892 31.8389 200.856 30.6191C199.821 29.3994 199.303 27.7253 199.303 25.5969C199.303 23.4312 199.891 21.726 201.067 20.4814C202.256 19.2243 203.874 18.5957 205.919 18.5957ZM224.456 18.8944L219.776 27.1652V32.1874H216.459V27.1652L211.779 18.8944H215.461L216.65 21.3029C217.2 22.4106 217.686 23.5246 218.108 24.6448H218.146C218.53 23.5743 219.009 22.4604 219.585 21.3029L220.774 18.8944H224.456Z" fill="#96E363"/>
</g>
<path d="M4.50781 93.1818C4.50781 92.5606 4.65933 91.9943 4.96236 91.483C5.26539 90.9716 5.67259 90.5644 6.18395 90.2614C6.69531 89.9583 7.2616 89.8068 7.88281 89.8068C8.42069 89.8068 8.9169 89.9223 9.37145 90.1534C9.82978 90.3845 10.2086 90.7008 10.5078 91.1023C10.8071 91.5 10.9927 91.9508 11.0646 92.4545H9.68963C9.61387 92.0644 9.40365 91.7462 9.05895 91.5C8.71425 91.25 8.32221 91.125 7.88281 91.125C7.50402 91.125 7.15933 91.2178 6.84872 91.4034C6.53812 91.589 6.29001 91.8371 6.1044 92.1477C5.9188 92.4583 5.82599 92.803 5.82599 93.1818C5.82599 93.5606 5.9188 93.9053 6.1044 94.2159C6.29001 94.5265 6.53812 94.7746 6.84872 94.9602C7.15933 95.1458 7.50402 95.2386 7.88281 95.2386C8.32221 95.2386 8.69342 95.1155 8.99645 94.8693C9.30327 94.6193 9.49645 94.2992 9.57599 93.9091H10.951C10.879 94.4129 10.7029 94.8655 10.4226 95.267C10.1423 95.6648 9.78243 95.9792 9.34304 96.2102C8.90743 96.4413 8.42069 96.5568 7.88281 96.5568C7.2616 96.5568 6.69531 96.4053 6.18395 96.1023C5.67259 95.7992 5.26539 95.392 4.96236 94.8807C4.65933 94.3693 4.50781 93.803 4.50781 93.1818ZM7.82599 99.1818C7.00024 99.1818 6.22372 99.0265 5.49645 98.7159C4.77296 98.4053 4.13471 97.9754 3.58168 97.4261C3.03243 96.8731 2.60062 96.2348 2.28622 95.5114C1.97562 94.7879 1.82221 94.0114 1.82599 93.1818C1.82978 92.3523 1.98698 91.5758 2.29759 90.8523C2.61198 90.1288 3.0438 89.4924 3.59304 88.9432C4.14228 88.3902 4.77865 87.9583 5.50213 87.6477C6.22562 87.3371 7.00024 87.1818 7.82599 87.1818C8.65554 87.1818 9.43206 87.3371 10.1555 87.6477C10.8828 87.9583 11.5192 88.3902 12.0646 88.9432C12.6139 89.4924 13.0438 90.1288 13.3544 90.8523C13.665 91.5758 13.8222 92.3523 13.826 93.1818C13.8298 94.0114 13.6764 94.7879 13.3658 95.5114C13.0552 96.2348 12.6252 96.8731 12.076 97.4261C11.5268 97.9754 10.8885 98.4053 10.1612 98.7159C9.43395 99.0265 8.65554 99.1818 7.82599 99.1818ZM7.82599 97.8636C8.47372 97.8636 9.08168 97.7424 9.64986 97.5C10.218 97.2576 10.7161 96.9223 11.1442 96.4943C11.5722 96.0663 11.9074 95.5701 12.1499 95.0057C12.3923 94.4375 12.5116 93.8314 12.5078 93.1875C12.504 92.5398 12.3809 91.9318 12.1385 91.3636C11.8961 90.7955 11.5608 90.2973 11.1328 89.8693C10.7048 89.4413 10.2086 89.1061 9.64418 88.8636C9.07978 88.6212 8.47372 88.5 7.82599 88.5C7.18206 88.5 6.57789 88.6212 6.01349 88.8636C5.4491 89.1061 4.95289 89.4432 4.52486 89.875C4.09683 90.303 3.75971 90.8011 3.51349 91.3693C3.27107 91.9337 3.14796 92.5398 3.14418 93.1875C3.14039 93.8277 3.25971 94.4318 3.50213 95C3.74456 95.5644 4.07978 96.0606 4.50781 96.4886C4.93963 96.9167 5.43774 97.2538 6.00213 97.5C6.57031 97.7424 7.17827 97.8636 7.82599 97.8636ZM20.853 99V97.9773L24.6939 93.7727C25.1446 93.2803 25.5159 92.8523 25.8075 92.4886C26.0992 92.1212 26.3151 91.7765 26.4553 91.4545C26.5992 91.1288 26.6712 90.7879 26.6712 90.4318C26.6712 90.0227 26.5727 89.6686 26.3757 89.3693C26.1825 89.0701 25.9174 88.839 25.5803 88.6761C25.2431 88.5133 24.8643 88.4318 24.4439 88.4318C23.9969 88.4318 23.6068 88.5246 23.2734 88.7102C22.9439 88.892 22.6882 89.1477 22.5064 89.4773C22.3284 89.8068 22.2393 90.1932 22.2393 90.6364H20.8984C20.8984 89.9545 21.0556 89.3561 21.37 88.8409C21.6844 88.3258 22.1125 87.9242 22.6541 87.6364C23.1996 87.3485 23.8113 87.2045 24.4893 87.2045C25.1712 87.2045 25.7753 87.3485 26.3018 87.6364C26.8284 87.9242 27.2412 88.3125 27.5405 88.8011C27.8397 89.2898 27.9893 89.8333 27.9893 90.4318C27.9893 90.8598 27.9117 91.2784 27.7564 91.6875C27.6049 92.0928 27.3397 92.5455 26.9609 93.0455C26.5859 93.5417 26.0651 94.1477 25.3984 94.8636L22.7848 97.6591V97.75H28.1939V99H20.853ZM34.3359 99.1591C33.4799 99.1591 32.7507 98.9261 32.1484 98.4602C31.5462 97.9905 31.0859 97.3106 30.7678 96.4205C30.4496 95.5265 30.2905 94.447 30.2905 93.1818C30.2905 91.9242 30.4496 90.8504 30.7678 89.9602C31.0897 89.0663 31.5518 88.3845 32.1541 87.9148C32.7602 87.4413 33.4875 87.2045 34.3359 87.2045C35.1844 87.2045 35.9098 87.4413 36.5121 87.9148C37.1181 88.3845 37.5803 89.0663 37.8984 89.9602C38.2204 90.8504 38.3814 91.9242 38.3814 93.1818C38.3814 94.447 38.2223 95.5265 37.9041 96.4205C37.5859 97.3106 37.1257 97.9905 36.5234 98.4602C35.9212 98.9261 35.192 99.1591 34.3359 99.1591ZM34.3359 97.9091C35.1844 97.9091 35.8435 97.5 36.3132 96.6818C36.7829 95.8636 37.0178 94.697 37.0178 93.1818C37.0178 92.1742 36.9098 91.3163 36.6939 90.608C36.4818 89.8996 36.175 89.3598 35.7734 88.9886C35.3757 88.6174 34.8965 88.4318 34.3359 88.4318C33.495 88.4318 32.8378 88.8466 32.3643 89.6761C31.8909 90.5019 31.6541 91.6705 31.6541 93.1818C31.6541 94.1894 31.7602 95.0455 31.9723 95.75C32.1844 96.4545 32.4893 96.9905 32.8871 97.358C33.2886 97.7254 33.7715 97.9091 34.3359 97.9091ZM40.5405 99V97.9773L44.3814 93.7727C44.8321 93.2803 45.2034 92.8523 45.495 92.4886C45.7867 92.1212 46.0026 91.7765 46.1428 91.4545C46.2867 91.1288 46.3587 90.7879 46.3587 90.4318C46.3587 90.0227 46.2602 89.6686 46.0632 89.3693C45.87 89.0701 45.6049 88.839 45.2678 88.6761C44.9306 88.5133 44.5518 88.4318 44.1314 88.4318C43.6844 88.4318 43.2943 88.5246 42.9609 88.7102C42.6314 88.892 42.3757 89.1477 42.1939 89.4773C42.0159 89.8068 41.9268 90.1932 41.9268 90.6364H40.5859C40.5859 89.9545 40.7431 89.3561 41.0575 88.8409C41.3719 88.3258 41.8 87.9242 42.3416 87.6364C42.8871 87.3485 43.4988 87.2045 44.1768 87.2045C44.8587 87.2045 45.4628 87.3485 45.9893 87.6364C46.5159 87.9242 46.9287 88.3125 47.228 88.8011C47.5272 89.2898 47.6768 89.8333 47.6768 90.4318C47.6768 90.8598 47.5992 91.2784 47.4439 91.6875C47.2924 92.0928 47.0272 92.5455 46.6484 93.0455C46.2734 93.5417 45.7526 94.1477 45.0859 94.8636L42.4723 97.6591V97.75H47.8814V99H40.5405ZM50.228 99V97.9773L54.0689 93.7727C54.5196 93.2803 54.8909 92.8523 55.1825 92.4886C55.4742 92.1212 55.6901 91.7765 55.8303 91.4545C55.9742 91.1288 56.0462 90.7879 56.0462 90.4318C56.0462 90.0227 55.9477 89.6686 55.7507 89.3693C55.5575 89.0701 55.2924 88.839 54.9553 88.6761C54.6181 88.5133 54.2393 88.4318 53.8189 88.4318C53.3719 88.4318 52.9818 88.5246 52.6484 88.7102C52.3189 88.892 52.0632 89.1477 51.8814 89.4773C51.7034 89.8068 51.6143 90.1932 51.6143 90.6364H50.2734C50.2734 89.9545 50.4306 89.3561 50.745 88.8409C51.0594 88.3258 51.4875 87.9242 52.0291 87.6364C52.5746 87.3485 53.1863 87.2045 53.8643 87.2045C54.5462 87.2045 55.1503 87.3485 55.6768 87.6364C56.2034 87.9242 56.6162 88.3125 56.9155 88.8011C57.2147 89.2898 57.3643 89.8333 57.3643 90.4318C57.3643 90.8598 57.2867 91.2784 57.1314 91.6875C56.9799 92.0928 56.7147 92.5455 56.3359 93.0455C55.9609 93.5417 55.4401 94.1477 54.7734 94.8636L52.1598 97.6591V97.75H57.5689V99H50.228ZM65.0973 99H63.62L67.8928 87.3636H69.3473L73.62 99H72.1428L68.6655 89.2045H68.5746L65.0973 99ZM65.6428 94.4545H71.5973V95.7045H65.6428V94.4545ZM75.4325 99V87.3636H79.5007C80.3113 87.3636 80.9799 87.5038 81.5064 87.7841C82.0329 88.0606 82.425 88.4337 82.6825 88.9034C82.9401 89.3693 83.0689 89.8864 83.0689 90.4545C83.0689 90.9545 82.9799 91.3674 82.8018 91.6932C82.6276 92.0189 82.3965 92.2765 82.1087 92.4659C81.8246 92.6553 81.5159 92.7955 81.1825 92.8864V93C81.5386 93.0227 81.8965 93.1477 82.2564 93.375C82.6162 93.6023 82.9174 93.928 83.1598 94.3523C83.4022 94.7765 83.5234 95.2955 83.5234 95.9091C83.5234 96.4924 83.3909 97.017 83.1257 97.483C82.8606 97.9489 82.442 98.3182 81.87 98.5909C81.2981 98.8636 80.5537 99 79.6371 99H75.4325ZM76.8416 97.75H79.6371C80.5575 97.75 81.2109 97.572 81.5973 97.2159C81.9875 96.8561 82.1825 96.4205 82.1825 95.9091C82.1825 95.5152 82.0821 95.1515 81.8814 94.8182C81.6806 94.4811 81.3946 94.2121 81.0234 94.0114C80.6522 93.8068 80.2128 93.7045 79.7053 93.7045H76.8416V97.75ZM76.8416 92.4773H79.4553C79.8795 92.4773 80.2621 92.3939 80.603 92.2273C80.9477 92.0606 81.2204 91.8258 81.4212 91.5227C81.6257 91.2197 81.728 90.8636 81.728 90.4545C81.728 89.9432 81.55 89.5095 81.1939 89.1534C80.8378 88.7936 80.2734 88.6136 79.5007 88.6136H76.8416V92.4773ZM95.2024 91H93.7933C93.71 90.5947 93.5642 90.2386 93.3558 89.9318C93.1513 89.625 92.9013 89.3674 92.6058 89.1591C92.3142 88.947 91.9903 88.7879 91.6342 88.6818C91.2782 88.5758 90.907 88.5227 90.5206 88.5227C89.8161 88.5227 89.1778 88.7008 88.6058 89.0568C88.0376 89.4129 87.585 89.9375 87.2479 90.6307C86.9145 91.3239 86.7479 92.1742 86.7479 93.1818C86.7479 94.1894 86.9145 95.0398 87.2479 95.733C87.585 96.4261 88.0376 96.9508 88.6058 97.3068C89.1778 97.6629 89.8161 97.8409 90.5206 97.8409C90.907 97.8409 91.2782 97.7879 91.6342 97.6818C91.9903 97.5758 92.3142 97.4186 92.6058 97.2102C92.9013 96.9981 93.1513 96.7386 93.3558 96.4318C93.5642 96.1212 93.71 95.7652 93.7933 95.3636H95.2024C95.0964 95.9583 94.9032 96.4905 94.6229 96.9602C94.3426 97.4299 93.9941 97.8295 93.5774 98.1591C93.1607 98.4848 92.6929 98.733 92.174 98.9034C91.6589 99.0739 91.1077 99.1591 90.5206 99.1591C89.5282 99.1591 88.6456 98.9167 87.8729 98.4318C87.1001 97.947 86.4922 97.2576 86.049 96.3636C85.6058 95.4697 85.3842 94.4091 85.3842 93.1818C85.3842 91.9545 85.6058 90.8939 86.049 90C86.4922 89.1061 87.1001 88.4167 87.8729 87.9318C88.6456 87.447 89.5282 87.2045 90.5206 87.2045C91.1077 87.2045 91.6589 87.2898 92.174 87.4602C92.6929 87.6307 93.1607 87.8807 93.5774 88.2102C93.9941 88.536 94.3426 88.9337 94.6229 89.4034C94.9032 89.8693 95.0964 90.4015 95.2024 91ZM98.2749 99.0909C97.9946 99.0909 97.754 98.9905 97.5533 98.7898C97.3525 98.589 97.2521 98.3485 97.2521 98.0682C97.2521 97.7879 97.3525 97.5473 97.5533 97.3466C97.754 97.1458 97.9946 97.0455 98.2749 97.0455C98.5552 97.0455 98.7957 97.1458 98.9964 97.3466C99.1972 97.5473 99.2976 97.7879 99.2976 98.0682C99.2976 98.2538 99.2502 98.4242 99.1555 98.5795C99.0646 98.7348 98.9415 98.8598 98.7862 98.9545C98.6347 99.0455 98.4643 99.0909 98.2749 99.0909ZM106.863 99H105.386L109.658 87.3636H111.113L115.386 99H113.908L110.431 89.2045H110.34L106.863 99ZM107.408 94.4545H113.363V95.7045H107.408V94.4545ZM118.357 87.3636V99H117.016V87.3636H118.357ZM122.154 87.3636V99H120.813V87.3636H122.154ZM129.11 99V90.2727H130.406V91.5909H130.496C130.656 91.1591 130.943 90.8087 131.36 90.5398C131.777 90.2708 132.246 90.1364 132.769 90.1364C132.868 90.1364 132.991 90.1383 133.138 90.142C133.286 90.1458 133.398 90.1515 133.474 90.1591V91.5227C133.428 91.5114 133.324 91.4943 133.161 91.4716C133.002 91.4451 132.834 91.4318 132.656 91.4318C132.231 91.4318 131.853 91.5208 131.519 91.6989C131.19 91.8731 130.928 92.1155 130.735 92.4261C130.546 92.733 130.451 93.0833 130.451 93.4773V99H129.11ZM135.063 99V90.2727H136.404V99H135.063ZM135.745 88.8182C135.484 88.8182 135.258 88.7292 135.069 88.5511C134.883 88.3731 134.79 88.1591 134.79 87.9091C134.79 87.6591 134.883 87.4451 135.069 87.267C135.258 87.089 135.484 87 135.745 87C136.006 87 136.23 87.089 136.415 87.267C136.605 87.4451 136.7 87.6591 136.7 87.9091C136.7 88.1591 136.605 88.3731 136.415 88.5511C136.23 88.7292 136.006 88.8182 135.745 88.8182ZM142.383 102.455C141.735 102.455 141.178 102.371 140.712 102.205C140.246 102.042 139.858 101.826 139.548 101.557C139.241 101.292 138.996 101.008 138.815 100.705L139.883 99.9545C140.004 100.114 140.157 100.295 140.343 100.5C140.529 100.708 140.782 100.888 141.104 101.04C141.43 101.195 141.856 101.273 142.383 101.273C143.087 101.273 143.669 101.102 144.127 100.761C144.585 100.42 144.815 99.8864 144.815 99.1591V97.3864H144.701C144.603 97.5455 144.462 97.7424 144.281 97.9773C144.103 98.2083 143.845 98.4148 143.508 98.5966C143.174 98.7746 142.724 98.8636 142.156 98.8636C141.451 98.8636 140.818 98.697 140.258 98.3636C139.701 98.0303 139.26 97.5455 138.934 96.9091C138.612 96.2727 138.451 95.5 138.451 94.5909C138.451 93.697 138.608 92.9186 138.923 92.2557C139.237 91.589 139.674 91.0739 140.235 90.7102C140.796 90.3428 141.443 90.1591 142.178 90.1591C142.746 90.1591 143.197 90.2538 143.531 90.4432C143.868 90.6288 144.125 90.8409 144.303 91.0795C144.485 91.3144 144.625 91.5076 144.724 91.6591H144.86V90.2727H146.156V99.25C146.156 100 145.985 100.61 145.644 101.08C145.307 101.553 144.853 101.9 144.281 102.119C143.712 102.343 143.08 102.455 142.383 102.455ZM142.337 97.6591C142.875 97.6591 143.33 97.536 143.701 97.2898C144.072 97.0436 144.354 96.6894 144.548 96.2273C144.741 95.7652 144.837 95.2121 144.837 94.5682C144.837 93.9394 144.743 93.3845 144.553 92.9034C144.364 92.4223 144.084 92.0455 143.712 91.7727C143.341 91.5 142.883 91.3636 142.337 91.3636C141.769 91.3636 141.296 91.5076 140.917 91.7955C140.542 92.0833 140.26 92.4697 140.07 92.9545C139.885 93.4394 139.792 93.9773 139.792 94.5682C139.792 95.1742 139.887 95.7102 140.076 96.1761C140.269 96.6383 140.553 97.0019 140.928 97.267C141.307 97.5284 141.777 97.6591 142.337 97.6591ZM149.951 93.75V99H148.61V87.3636H149.951V91.6364H150.065C150.269 91.1856 150.576 90.8277 150.985 90.5625C151.398 90.2936 151.947 90.1591 152.633 90.1591C153.228 90.1591 153.748 90.2784 154.195 90.517C154.642 90.7519 154.989 91.1136 155.235 91.6023C155.485 92.0871 155.61 92.7045 155.61 93.4545V99H154.269V93.5455C154.269 92.8523 154.089 92.3163 153.729 91.9375C153.373 91.5549 152.879 91.3636 152.246 91.3636C151.807 91.3636 151.413 91.4564 151.065 91.642C150.72 91.8277 150.447 92.0985 150.246 92.4545C150.049 92.8106 149.951 93.2424 149.951 93.75ZM161.859 90.2727V91.4091H157.336V90.2727H161.859ZM158.654 88.1818H159.995V96.5C159.995 96.8788 160.05 97.1629 160.16 97.3523C160.273 97.5379 160.417 97.6629 160.592 97.7273C160.77 97.7879 160.957 97.8182 161.154 97.8182C161.302 97.8182 161.423 97.8106 161.518 97.7955C161.612 97.7765 161.688 97.7614 161.745 97.75L162.018 98.9545C161.927 98.9886 161.8 99.0227 161.637 99.0568C161.474 99.0947 161.268 99.1136 161.018 99.1136C160.639 99.1136 160.268 99.0322 159.904 98.8693C159.544 98.7064 159.245 98.4583 159.006 98.125C158.772 97.7917 158.654 97.3712 158.654 96.8636V88.1818ZM169.901 92.2273L168.697 92.5682C168.621 92.3674 168.509 92.1723 168.362 91.983C168.218 91.7898 168.021 91.6307 167.771 91.5057C167.521 91.3807 167.201 91.3182 166.81 91.3182C166.276 91.3182 165.831 91.4413 165.475 91.6875C165.123 91.9299 164.947 92.2386 164.947 92.6136C164.947 92.947 165.068 93.2102 165.31 93.4034C165.553 93.5966 165.932 93.7576 166.447 93.8864L167.742 94.2045C168.522 94.3939 169.104 94.6837 169.487 95.0739C169.869 95.4602 170.06 95.9583 170.06 96.5682C170.06 97.0682 169.916 97.5152 169.629 97.9091C169.344 98.303 168.947 98.6136 168.435 98.8409C167.924 99.0682 167.329 99.1818 166.651 99.1818C165.761 99.1818 165.024 98.9886 164.441 98.6023C163.858 98.2159 163.488 97.6515 163.333 96.9091L164.606 96.5909C164.727 97.0606 164.956 97.4129 165.293 97.6477C165.634 97.8826 166.079 98 166.629 98C167.254 98 167.75 97.8674 168.117 97.6023C168.488 97.3333 168.674 97.0114 168.674 96.6364C168.674 96.3333 168.568 96.0795 168.356 95.875C168.144 95.6667 167.818 95.5114 167.379 95.4091L165.924 95.0682C165.125 94.8788 164.538 94.5852 164.163 94.1875C163.791 93.786 163.606 93.2841 163.606 92.6818C163.606 92.1894 163.744 91.7538 164.021 91.375C164.301 90.9962 164.682 90.6989 165.163 90.483C165.647 90.267 166.197 90.1591 166.81 90.1591C167.674 90.1591 168.352 90.3485 168.844 90.7273C169.341 91.1061 169.693 91.6061 169.901 92.2273ZM176.579 99V90.2727H177.874V91.5909H177.965C178.124 91.1591 178.412 90.8087 178.829 90.5398C179.246 90.2708 179.715 90.1364 180.238 90.1364C180.336 90.1364 180.46 90.1383 180.607 90.142C180.755 90.1458 180.867 90.1515 180.942 90.1591V91.5227C180.897 91.5114 180.793 91.4943 180.63 91.4716C180.471 91.4451 180.302 91.4318 180.124 91.4318C179.7 91.4318 179.321 91.5208 178.988 91.6989C178.658 91.8731 178.397 92.1155 178.204 92.4261C178.014 92.733 177.92 93.0833 177.92 93.4773V99H176.579ZM185.925 99.1818C185.085 99.1818 184.359 98.9962 183.749 98.625C183.143 98.25 182.675 97.7273 182.346 97.0568C182.02 96.3826 181.857 95.5985 181.857 94.7045C181.857 93.8106 182.02 93.0227 182.346 92.3409C182.675 91.6553 183.134 91.1212 183.721 90.7386C184.312 90.3523 185.001 90.1591 185.789 90.1591C186.244 90.1591 186.692 90.2348 187.136 90.3864C187.579 90.5379 187.982 90.7841 188.346 91.125C188.71 91.4621 188.999 91.9091 189.215 92.4659C189.431 93.0227 189.539 93.7083 189.539 94.5227V95.0909H182.812V93.9318H188.175C188.175 93.4394 188.077 93 187.88 92.6136C187.687 92.2273 187.41 91.9223 187.05 91.6989C186.694 91.4754 186.274 91.3636 185.789 91.3636C185.255 91.3636 184.793 91.4962 184.403 91.7614C184.016 92.0227 183.719 92.3636 183.511 92.7841C183.302 93.2045 183.198 93.6553 183.198 94.1364V94.9091C183.198 95.5682 183.312 96.1269 183.539 96.5852C183.77 97.0398 184.09 97.3864 184.499 97.625C184.908 97.8598 185.384 97.9773 185.925 97.9773C186.278 97.9773 186.596 97.928 186.88 97.8295C187.168 97.7273 187.416 97.5758 187.624 97.375C187.833 97.1705 187.994 96.9167 188.107 96.6136L189.403 96.9773C189.266 97.4167 189.037 97.803 188.715 98.1364C188.393 98.4659 187.996 98.7235 187.522 98.9091C187.049 99.0909 186.516 99.1818 185.925 99.1818ZM197.761 92.2273L196.556 92.5682C196.48 92.3674 196.369 92.1723 196.221 91.983C196.077 91.7898 195.88 91.6307 195.63 91.5057C195.38 91.3807 195.06 91.3182 194.67 91.3182C194.136 91.3182 193.691 91.4413 193.335 91.6875C192.982 91.9299 192.806 92.2386 192.806 92.6136C192.806 92.947 192.927 93.2102 193.17 93.4034C193.412 93.5966 193.791 93.7576 194.306 93.8864L195.602 94.2045C196.382 94.3939 196.963 94.6837 197.346 95.0739C197.728 95.4602 197.92 95.9583 197.92 96.5682C197.92 97.0682 197.776 97.5152 197.488 97.9091C197.204 98.303 196.806 98.6136 196.295 98.8409C195.783 99.0682 195.189 99.1818 194.511 99.1818C193.621 99.1818 192.884 98.9886 192.3 98.6023C191.717 98.2159 191.348 97.6515 191.192 96.9091L192.465 96.5909C192.586 97.0606 192.816 97.4129 193.153 97.6477C193.494 97.8826 193.939 98 194.488 98C195.113 98 195.609 97.8674 195.977 97.6023C196.348 97.3333 196.533 97.0114 196.533 96.6364C196.533 96.3333 196.427 96.0795 196.215 95.875C196.003 95.6667 195.677 95.5114 195.238 95.4091L193.783 95.0682C192.984 94.8788 192.397 94.5852 192.022 94.1875C191.651 93.786 191.465 93.2841 191.465 92.6818C191.465 92.1894 191.603 91.7538 191.88 91.375C192.16 90.9962 192.541 90.6989 193.022 90.483C193.507 90.267 194.056 90.1591 194.67 90.1591C195.533 90.1591 196.211 90.3485 196.704 90.7273C197.2 91.1061 197.552 91.6061 197.761 92.2273ZM203.597 99.1818C202.756 99.1818 202.031 98.9962 201.421 98.625C200.815 98.25 200.347 97.7273 200.018 97.0568C199.692 96.3826 199.529 95.5985 199.529 94.7045C199.529 93.8106 199.692 93.0227 200.018 92.3409C200.347 91.6553 200.806 91.1212 201.393 90.7386C201.984 90.3523 202.673 90.1591 203.461 90.1591C203.915 90.1591 204.364 90.2348 204.808 90.3864C205.251 90.5379 205.654 90.7841 206.018 91.125C206.381 91.4621 206.671 91.9091 206.887 92.4659C207.103 93.0227 207.211 93.7083 207.211 94.5227V95.0909H200.484V93.9318H205.847C205.847 93.4394 205.749 93 205.552 92.6136C205.359 92.2273 205.082 91.9223 204.722 91.6989C204.366 91.4754 203.946 91.3636 203.461 91.3636C202.927 91.3636 202.465 91.4962 202.075 91.7614C201.688 92.0227 201.391 92.3636 201.183 92.7841C200.974 93.2045 200.87 93.6553 200.87 94.1364V94.9091C200.87 95.5682 200.984 96.1269 201.211 96.5852C201.442 97.0398 201.762 97.3864 202.171 97.625C202.58 97.8598 203.056 97.9773 203.597 97.9773C203.95 97.9773 204.268 97.928 204.552 97.8295C204.84 97.7273 205.088 97.5758 205.296 97.375C205.504 97.1705 205.665 96.9167 205.779 96.6136L207.075 96.9773C206.938 97.4167 206.709 97.803 206.387 98.1364C206.065 98.4659 205.667 98.7235 205.194 98.9091C204.72 99.0909 204.188 99.1818 203.597 99.1818ZM209.251 99V90.2727H210.546V91.5909H210.637C210.796 91.1591 211.084 90.8087 211.501 90.5398C211.917 90.2708 212.387 90.1364 212.91 90.1364C213.008 90.1364 213.131 90.1383 213.279 90.142C213.427 90.1458 213.539 90.1515 213.614 90.1591V91.5227C213.569 91.5114 213.465 91.4943 213.302 91.4716C213.143 91.4451 212.974 91.4318 212.796 91.4318C212.372 91.4318 211.993 91.5208 211.66 91.6989C211.33 91.8731 211.069 92.1155 210.876 92.4261C210.686 92.733 210.592 93.0833 210.592 93.4773V99H209.251ZM222.606 90.2727L219.379 99H218.015L214.788 90.2727H216.242L218.651 97.2273H218.742L221.151 90.2727H222.606ZM227.722 99.1818C226.881 99.1818 226.156 98.9962 225.546 98.625C224.94 98.25 224.472 97.7273 224.143 97.0568C223.817 96.3826 223.654 95.5985 223.654 94.7045C223.654 93.8106 223.817 93.0227 224.143 92.3409C224.472 91.6553 224.931 91.1212 225.518 90.7386C226.109 90.3523 226.798 90.1591 227.586 90.1591C228.04 90.1591 228.489 90.2348 228.933 90.3864C229.376 90.5379 229.779 90.7841 230.143 91.125C230.506 91.4621 230.796 91.9091 231.012 92.4659C231.228 93.0227 231.336 93.7083 231.336 94.5227V95.0909H224.609V93.9318H229.972C229.972 93.4394 229.874 93 229.677 92.6136C229.484 92.2273 229.207 91.9223 228.847 91.6989C228.491 91.4754 228.071 91.3636 227.586 91.3636C227.052 91.3636 226.59 91.4962 226.2 91.7614C225.813 92.0227 225.516 92.3636 225.308 92.7841C225.099 93.2045 224.995 93.6553 224.995 94.1364V94.9091C224.995 95.5682 225.109 96.1269 225.336 96.5852C225.567 97.0398 225.887 97.3864 226.296 97.625C226.705 97.8598 227.181 97.9773 227.722 97.9773C228.075 97.9773 228.393 97.928 228.677 97.8295C228.965 97.7273 229.213 97.5758 229.421 97.375C229.629 97.1705 229.79 96.9167 229.904 96.6136L231.2 96.9773C231.063 97.4167 230.834 97.803 230.512 98.1364C230.19 98.4659 229.792 98.7235 229.319 98.9091C228.845 99.0909 228.313 99.1818 227.722 99.1818ZM236.671 99.1818C235.944 99.1818 235.302 98.9981 234.745 98.6307C234.188 98.2595 233.753 97.7367 233.438 97.0625C233.124 96.3845 232.967 95.5833 232.967 94.6591C232.967 93.7424 233.124 92.947 233.438 92.2727C233.753 91.5985 234.19 91.0777 234.751 90.7102C235.311 90.3428 235.959 90.1591 236.694 90.1591C237.262 90.1591 237.711 90.2538 238.04 90.4432C238.374 90.6288 238.628 90.8409 238.802 91.0795C238.98 91.3144 239.118 91.5076 239.217 91.6591H239.33V87.3636H240.671V99H239.376V97.6591H239.217C239.118 97.8182 238.978 98.0189 238.796 98.2614C238.614 98.5 238.355 98.714 238.018 98.9034C237.681 99.089 237.232 99.1818 236.671 99.1818ZM236.853 97.9773C237.391 97.9773 237.845 97.8371 238.217 97.5568C238.588 97.2727 238.87 96.8807 239.063 96.3807C239.256 95.8769 239.353 95.2955 239.353 94.6364C239.353 93.9848 239.258 93.4148 239.069 92.9261C238.879 92.4337 238.599 92.0511 238.228 91.7784C237.857 91.5019 237.398 91.3636 236.853 91.3636C236.285 91.3636 235.811 91.5095 235.433 91.8011C235.058 92.089 234.775 92.4811 234.586 92.9773C234.4 93.4697 234.308 94.0227 234.308 94.6364C234.308 95.2576 234.402 95.822 234.592 96.3295C234.785 96.8333 235.069 97.2348 235.444 97.5341C235.823 97.8295 236.292 97.9773 236.853 97.9773ZM244.29 99.0909C244.01 99.0909 243.77 98.9905 243.569 98.7898C243.368 98.589 243.268 98.3485 243.268 98.0682C243.268 97.7879 243.368 97.5473 243.569 97.3466C243.77 97.1458 244.01 97.0455 244.29 97.0455C244.571 97.0455 244.811 97.1458 245.012 97.3466C245.213 97.5473 245.313 97.7879 245.313 98.0682C245.313 98.2538 245.266 98.4242 245.171 98.5795C245.08 98.7348 244.957 98.8598 244.802 98.9545C244.65 99.0455 244.48 99.0909 244.29 99.0909Z" fill="#D0DAF5"/>
<path d="M59.5799 140.953H56.9949C56.9949 145.061 56.9949 150.116 56.9949 150.116H53.1645C53.1645 150.116 53.1645 145.11 53.1645 140.953H51.3438V137.715H53.1645V135.62C53.1645 134.12 53.8813 131.775 57.0301 131.775L59.8685 131.786V134.93C59.8685 134.93 58.1437 134.93 57.8084 134.93C57.473 134.93 56.9962 135.097 56.9962 135.812V137.715H59.9146L59.5799 140.953Z" fill="#D0DAF5"/>
<path d="M104.128 137.053L104.14 137.56C104.14 142.733 100.182 148.693 92.9455 148.693C90.7243 148.693 88.6568 148.045 86.915 146.935C87.2227 146.97 87.5362 146.99 87.8539 146.99C89.6976 146.99 91.3935 146.364 92.7398 145.315C91.0179 145.284 89.5657 144.151 89.0644 142.598C89.306 142.644 89.5497 142.665 89.8054 142.665C90.165 142.665 90.5125 142.62 90.8421 142.53C89.0423 142.169 87.6861 140.589 87.6861 138.694V138.645C88.2174 138.939 88.8226 139.113 89.4678 139.135C88.4131 138.434 87.718 137.236 87.718 135.879C87.718 135.162 87.9118 134.491 88.2493 133.912C90.1889 136.28 93.0893 137.838 96.3592 138.001C96.2912 137.715 96.2573 137.415 96.2573 137.109C96.2573 134.95 98.0191 133.197 100.192 133.197C101.323 133.197 102.346 133.672 103.065 134.433C103.96 134.256 104.803 133.93 105.564 133.483C105.27 134.397 104.647 135.164 103.834 135.649C104.627 135.555 105.388 135.343 106.093 135.033C105.566 135.816 104.897 136.505 104.128 137.053Z" fill="#D0DAF5"/>
<path fill-rule="evenodd" clip-rule="evenodd" d="M138.969 131.06C140.036 131.012 140.377 131 143.093 131C145.809 131 146.149 131.012 147.216 131.06C148.841 131.133 150.269 131.53 151.414 132.669C152.56 133.809 152.959 135.228 153.033 136.845C153.081 137.905 153.093 138.244 153.093 140.945C153.093 143.647 153.081 143.985 153.033 145.046C152.959 146.662 152.56 148.082 151.414 149.222C150.269 150.361 148.841 150.758 147.216 150.831C146.149 150.879 145.809 150.891 143.093 150.891C140.377 150.891 140.036 150.879 138.969 150.831C137.344 150.758 135.917 150.361 134.771 149.222C133.625 148.082 133.227 146.662 133.153 145.046C133.104 143.985 133.093 143.647 133.093 140.945C133.093 138.244 133.104 137.905 133.153 136.845C133.227 135.228 133.625 133.809 134.771 132.669C135.917 131.53 137.344 131.133 138.969 131.06ZM147.133 132.85C146.079 132.802 145.762 132.792 143.092 132.792C140.422 132.792 140.105 132.802 139.051 132.85C137.913 132.901 136.857 133.128 136.044 133.937C135.232 134.745 135.004 135.795 134.952 136.927C134.904 137.975 134.894 138.29 134.894 140.946C134.894 143.601 134.904 143.916 134.952 144.964C135.004 146.097 135.232 147.147 136.044 147.955C136.857 148.763 137.913 148.99 139.051 149.041C140.105 149.089 140.422 149.099 143.092 149.099C145.762 149.099 146.079 149.089 147.133 149.041C148.271 148.99 149.327 148.763 150.139 147.955C150.952 147.147 151.18 146.097 151.232 144.964C151.28 143.916 151.29 143.601 151.29 140.946C151.29 138.29 151.28 137.975 151.232 136.927C151.18 135.795 150.952 134.745 150.139 133.937C149.327 133.128 148.271 132.901 147.133 132.85ZM137.956 140.945C137.956 138.125 140.255 135.838 143.091 135.838C145.927 135.838 148.226 138.125 148.226 140.945C148.226 143.765 145.927 146.052 143.091 146.052C140.255 146.052 137.956 143.765 137.956 140.945ZM139.757 140.945C139.757 142.776 141.249 144.26 143.09 144.26C144.931 144.26 146.423 142.776 146.423 140.945C146.423 139.114 144.931 137.63 143.09 137.63C141.249 137.63 139.757 139.114 139.757 140.945ZM149.629 135.637C149.629 136.296 149.092 136.83 148.429 136.83C147.767 136.83 147.229 136.296 147.229 135.637C147.229 134.978 147.767 134.443 148.429 134.443C149.092 134.443 149.629 134.978 149.629 135.637Z" fill="#D0DAF5"/>
<path fill-rule="evenodd" clip-rule="evenodd" d="M195.654 148.027C195.7 148.578 195.257 149.021 194.703 149.021H189.007C188.455 149.021 188.003 148.575 187.95 148.027C187.74 145.849 186.775 140.851 182.35 140.851C182.036 140.851 181.579 140.81 181.181 140.765C180.701 140.712 180.341 140.312 180.323 139.831L180.094 133.899C180.071 133.313 180.554 132.834 181.14 132.873C182.05 132.934 183.326 133.041 184.127 133.196C193.798 135.068 195.392 144.854 195.654 148.027Z" fill="#D0DAF5"/>
<defs>
<clipPath id="clip0_365_1228">
<rect width="202" height="55" fill="white" transform="translate(22.5)"/>
</clipPath>
</defs>
</svg>
