<svg width="103" height="100" viewBox="0 0 103 100" fill="none" xmlns="http://www.w3.org/2000/svg">
<g filter="url(#filter0_di_365_1116)">
<rect x="23.8906" y="7" width="67.3953" height="63" rx="13.186" transform="rotate(9.95504 23.8906 7)" fill="#373737"/>
<rect x="24.2967" y="7.57891" width="66.3953" height="62" rx="12.686" transform="rotate(9.95504 24.2967 7.57891)" stroke="#373737"/>
</g>
<g clip-path="url(#clip0_365_1116)">
<rect width="35.5075" height="35.5075" transform="translate(37.6357 23.4951) rotate(9.96)" fill="#373737"/>
<path fill-rule="evenodd" clip-rule="evenodd" d="M54.7188 28.3729L56.9882 28.7714C57.5918 28.8774 57.9951 29.4526 57.8891 30.0562C57.7831 30.6598 57.2079 31.0632 56.6043 30.9572L54.4186 30.5733C50.9531 29.9648 48.4635 29.53 46.5244 29.452C44.6176 29.3753 43.4109 29.6544 42.435 30.3388C41.4591 31.0231 40.7856 32.0625 40.208 33.8814C39.6206 35.731 39.1812 38.2198 38.5726 41.6853C37.9641 45.1508 37.5293 47.6404 37.4513 49.5794C37.3746 51.4862 37.6537 52.693 38.3381 53.6688C39.0224 54.6447 40.0618 55.3183 41.8807 55.8958C43.7303 56.4832 46.2191 56.9226 49.6846 57.5312C53.1501 58.1398 55.6397 58.5746 57.5787 58.6525C59.4855 58.7292 60.6923 58.4501 61.6681 57.7658C62.644 57.0814 63.3176 56.042 63.8952 54.2231C64.4825 52.3735 64.9219 49.8848 65.5305 46.4193L65.9143 44.2335C66.0203 43.6299 66.5956 43.2265 67.1991 43.3325C67.8027 43.4385 68.2061 44.0137 68.1001 44.6173L67.7016 46.8867C67.1109 50.2505 66.648 52.8866 66.0103 54.8948C65.3575 56.9503 64.4752 58.5078 62.9423 59.5828C61.4094 60.6577 59.6445 60.9566 57.4895 60.87C55.3842 60.7853 52.7481 60.3224 49.3843 59.7316L49.2171 59.7023C45.8534 59.1116 43.2173 58.6487 41.209 58.011C39.1535 57.3582 37.596 56.4759 36.5211 54.943C35.4461 53.4101 35.1472 51.6452 35.2339 49.4902C35.3185 47.3849 35.7815 44.7488 36.3722 41.385L36.4015 41.2178C36.9922 37.8541 37.4551 35.218 38.0928 33.2097C38.7456 31.1542 39.628 29.5967 41.1608 28.5218C42.6937 27.4468 44.4587 27.1479 46.6136 27.2346C48.719 27.3192 51.355 27.7822 54.7188 28.3729ZM61.4914 31.1032C63.8347 29.46 67.0664 30.0275 68.7096 32.3708C70.3529 34.7141 69.7854 37.9458 67.4421 39.589L56.0534 47.5753C55.4173 48.0214 55.0189 48.3009 54.5889 48.5295C54.0824 48.7987 53.5481 49.0119 52.9955 49.1654C52.5263 49.2957 52.0449 49.3674 51.2765 49.4818L46.7964 50.1494C45.9692 50.2727 45.1434 49.918 44.6633 49.2333C44.1831 48.5486 44.131 47.6514 44.5287 46.9157L46.6828 42.9311C47.0522 42.2476 47.2836 41.8195 47.5659 41.4227C47.8985 40.9554 48.2811 40.5258 48.7067 40.1413C49.0681 39.8149 49.4666 39.5355 50.1028 39.0895L61.4914 31.1032ZM66.8926 33.645C65.9531 32.3052 64.1054 31.9807 62.7656 32.9202L62.1204 33.3727C62.1289 33.5182 62.146 33.6927 62.1778 33.8897C62.2809 34.5282 62.5369 35.3903 63.1523 36.2679C63.7677 37.1455 64.491 37.6798 65.0562 37.9944C65.2305 38.0914 65.3888 38.1669 65.5227 38.2245L66.1679 37.7721C67.5077 36.8325 67.8322 34.9848 66.8926 33.645ZM63.4985 39.644C62.8034 39.1886 62.0186 38.5165 61.3353 37.5421C60.652 36.5676 60.2874 35.6008 60.0961 34.7922L51.4358 40.8652C50.7223 41.3655 50.442 41.5644 50.1942 41.7883C49.8881 42.0647 49.6131 42.3736 49.374 42.7096C49.1803 42.9817 49.0152 43.2831 48.6007 44.0497L47.6398 45.8273L48.8796 47.5953L50.8782 47.2975C51.7402 47.169 52.0798 47.1165 52.4016 47.0271C52.799 46.9168 53.1831 46.7634 53.5473 46.5699C53.8422 46.4131 54.1247 46.2174 54.8382 45.717L63.4985 39.644Z" fill="url(#paint0_linear_365_1116)"/>
</g>
<defs>
<filter id="filter0_di_365_1116" x="0.419067" y="0.279532" width="102.433" height="98.864" filterUnits="userSpaceOnUse" color-interpolation-filters="sRGB">
<feFlood flood-opacity="0" result="BackgroundImageFix"/>
<feColorMatrix in="SourceAlpha" type="matrix" values="0 0 0 0 0 0 0 0 0 0 0 0 0 0 0 0 0 0 127 0" result="hardAlpha"/>
<feOffset dy="5.86047"/>
<feGaussianBlur stdDeviation="7.54535"/>
<feComposite in2="hardAlpha" operator="out"/>
<feColorMatrix type="matrix" values="0 0 0 0 0.777239 0 0 0 0 1 0 0 0 0 0.629695 0 0 0 0.15 0"/>
<feBlend mode="normal" in2="BackgroundImageFix" result="effect1_dropShadow_365_1116"/>
<feBlend mode="normal" in="SourceGraphic" in2="effect1_dropShadow_365_1116" result="shape"/>
<feColorMatrix in="SourceAlpha" type="matrix" values="0 0 0 0 0 0 0 0 0 0 0 0 0 0 0 0 0 0 127 0" result="hardAlpha"/>
<feOffset dx="-1.46512" dy="1.46512"/>
<feGaussianBlur stdDeviation="1.1"/>
<feComposite in2="hardAlpha" operator="arithmetic" k2="-1" k3="1"/>
<feColorMatrix type="matrix" values="0 0 0 0 0.44858 0 0 0 0 0.44858 0 0 0 0 0.44858 0 0 0 0.6 0"/>
<feBlend mode="normal" in2="shape" result="effect2_innerShadow_365_1116"/>
</filter>
<linearGradient id="paint0_linear_365_1116" x1="36.4061" y1="41.1919" x2="67.7355" y2="46.6936" gradientUnits="userSpaceOnUse">
<stop stop-color="#AAE6E7"/>
<stop offset="1" stop-color="#95E362"/>
</linearGradient>
<clipPath id="clip0_365_1116">
<rect width="35.5075" height="35.5075" fill="white" transform="translate(37.6357 23.4951) rotate(9.96)"/>
</clipPath>
</defs>
</svg>
