<svg width="202" height="55" viewBox="0 0 202 55" fill="none" xmlns="http://www.w3.org/2000/svg">
<g clip-path="url(#clip0_365_1065)">
<mask id="mask0_365_1065" style="mask-type:luminance" maskUnits="userSpaceOnUse" x="-1" y="14" width="24" height="25">
<path d="M22.444 14.5918H-0.19043V38.6093H22.444V14.5918Z" fill="white"/>
</mask>
<g mask="url(#mask0_365_1065)">
<path d="M15.5601 19.2931C14.5724 16.4455 13.0316 14.6942 11.5751 14.5966C10.0948 14.4939 8.33015 16.05 6.98159 18.7437C5.45981 18.4462 4.11445 18.406 3.04996 18.5905C3.20861 18.8043 3.32669 19.0485 3.393 19.3122C4.26438 19.1938 5.37145 19.23 6.64452 19.4627C6.90257 19.5115 7.16596 19.5654 7.43733 19.627C8.26951 19.8247 9.15987 20.0995 10.0922 20.4642C10.4478 20.6001 10.8086 20.7543 11.1748 20.9185C11.7437 21.1754 12.3284 21.4656 12.9183 21.7891C13.1079 21.8943 13.3477 21.8276 13.4557 21.6428C13.5636 21.4553 13.4952 21.2216 13.3054 21.1163C12.9736 20.9341 12.6443 20.762 12.3152 20.6001C11.9517 20.4204 11.5909 20.251 11.2327 20.0969C10.029 19.573 8.86753 19.1828 7.78236 18.9183C8.99387 16.5816 10.4741 15.3028 11.5224 15.367C12.5575 15.4364 13.8534 16.8846 14.7488 19.3676C14.8358 19.609 14.92 19.8581 14.9964 20.1174C15.2413 20.916 15.4417 21.807 15.5837 22.7752C15.6391 23.1449 15.6865 23.525 15.7209 23.9179C15.7787 24.5264 15.8129 25.1632 15.8208 25.8257C15.8234 26.0363 15.9999 26.2057 16.2159 26.2057H16.2211C16.4373 26.2032 16.6136 26.0311 16.611 25.8179C16.6085 25.4456 16.5953 25.081 16.5741 24.7215C16.553 24.3236 16.5214 23.9332 16.4793 23.5532C16.3451 22.2744 16.1105 21.0984 15.7999 20.0481C17.2766 19.9675 18.5101 20.1156 19.3984 20.4189C19.545 20.1831 19.7386 19.9777 19.966 19.8151C18.8835 19.3691 17.36 19.1724 15.5601 19.2931ZM6.81312 33.1466C6.72874 32.9051 6.64452 32.6561 6.5681 32.3968C6.32322 31.5957 6.12291 30.7072 5.9808 29.7364C5.92552 29.3667 5.88065 28.9867 5.84373 28.5963C5.78586 27.9877 5.7543 27.351 5.74634 26.691C5.74373 26.4779 5.56456 26.3162 5.34602 26.311C5.12733 26.311 4.95352 26.4856 4.95613 26.6988C4.96149 27.0711 4.97205 27.4357 4.99303 27.7927C5.01416 28.1906 5.04571 28.581 5.08783 28.961C5.22214 30.2398 5.45659 31.4157 5.76747 32.4661C3.0835 32.6125 1.20291 32.0039 0.739353 31.0794C0.281151 30.1703 0.921133 28.3524 2.68058 26.352C2.84905 26.1595 3.02822 25.9644 3.2204 25.7693C3.80787 25.1632 4.49793 24.5469 5.29074 23.9435C5.5909 23.7098 5.90699 23.4812 6.23885 23.2554C6.74988 22.901 7.29767 22.5568 7.87977 22.2205C8.06675 22.1127 8.12999 21.8764 8.01943 21.6942C7.90871 21.5092 7.66644 21.4501 7.47684 21.558C7.1502 21.748 6.83151 21.9406 6.52339 22.1357C6.18096 22.3541 5.85169 22.5749 5.53562 22.8009C4.46622 23.5506 3.53909 24.3389 2.76222 25.1247C1.94687 23.9138 1.46066 22.7941 1.28806 21.8907C0.99602 21.8867 0.717914 21.8254 0.465075 21.7177C0.608723 22.8565 1.19725 24.2446 2.20905 25.7076C0.173033 27.9648 -0.614424 30.1396 0.0283144 31.4184C0.605047 32.5662 2.44353 33.2568 4.98522 33.2568C5.31433 33.2568 5.65415 33.2468 6.00714 33.221C6.54054 34.7631 7.23687 35.9844 7.99463 36.7953C8.08053 36.5304 8.21944 36.2884 8.39892 36.0811C7.8251 35.3986 7.26811 34.4056 6.81312 33.1466ZM21.4597 23.5653C21.3831 23.5735 21.3053 23.5777 21.2265 23.5777C21.0249 23.5777 20.8296 23.5503 20.6445 23.4991C20.3128 24.2922 19.7276 25.2061 18.8866 26.1622C18.718 26.3547 18.5389 26.5498 18.3468 26.7449C17.7566 27.3509 17.0692 27.9673 16.2765 28.5732C15.9762 28.8044 15.6601 29.0355 15.3283 29.2615C14.8173 29.6132 14.2695 29.9599 13.6874 30.2962C13.4978 30.4042 13.4371 30.6403 13.5479 30.8227C13.6215 30.9434 13.7532 31.0127 13.8875 31.0127C13.956 31.0127 14.0246 30.9947 14.0877 30.9587C14.4169 30.7687 14.7356 30.5762 15.044 30.3784C15.3862 30.1628 15.7128 29.9418 16.0289 29.7159H16.0315C17.101 28.9635 18.0281 28.1752 18.8049 27.3895C20.2774 29.5825 20.6777 31.4749 20.0902 32.3273C19.5081 33.1697 17.5751 33.5368 14.9174 33.0541C14.662 33.0054 14.3986 32.9513 14.13 32.8898C13.3002 32.6945 12.41 32.4198 11.4777 32.0527H11.4749C11.1195 31.9166 10.7559 31.7625 10.3872 31.5957C9.81823 31.3415 9.2389 31.0512 8.64884 30.7276C8.45926 30.6224 8.21682 30.6891 8.11147 30.874C8.0035 31.0589 8.06935 31.2952 8.2617 31.3978C8.59356 31.5802 8.92282 31.7522 9.25207 31.914C9.61808 32.0963 9.98164 32.2631 10.3398 32.4198C11.5408 32.9437 12.6998 33.334 13.7849 33.5985C13.1717 34.7822 12.49 35.695 11.8301 36.2991C11.9803 36.527 12.0864 36.7851 12.136 37.0619C12.9987 36.3541 13.8511 35.2309 14.5803 33.7731C15.4944 33.9528 16.3451 34.0375 17.1114 34.0375C18.8736 34.0375 20.1773 33.5831 20.7436 32.7587C21.5706 31.5596 21.0753 29.2922 19.358 26.8091C20.3836 25.6724 21.0916 24.5563 21.4597 23.5653Z" fill="#96E363"/>
<path d="M12.0083 25.0236C12.0083 25.0236 12.0061 25.0241 12.0049 25.0243C12.0056 25.0236 12.0065 25.0229 12.0072 25.0222C12.0081 25.022 12.0091 25.0217 12.01 25.0215C12.0095 25.0222 12.0091 25.0226 12.0083 25.0234V25.0236Z" fill="#96E363"/>
<path d="M12.0088 25.0216C12.0088 25.0216 12.0095 25.0207 12.0099 25.0205C12.0095 25.0209 12.0093 25.0211 12.009 25.0216H12.0088Z" fill="#96E363"/>
<path d="M10.7825 22.5625C8.68916 22.5625 6.99219 24.2166 6.99219 26.257C6.99219 28.2974 8.68916 29.9514 10.7825 29.9514C12.8758 29.9514 14.5727 28.2974 14.5727 26.257C14.5727 24.2166 12.8758 22.5625 10.7825 22.5625ZM13.0019 24.3887C12.9309 24.7771 12.8445 25.1621 12.7292 25.5405C12.6053 25.9468 12.4529 26.3419 12.233 26.7097C12.0327 27.0444 11.7851 27.3378 11.4479 27.5521C11.1993 27.7098 10.9266 27.8112 10.635 27.8561C10.3916 27.8936 10.1454 27.9125 9.90051 27.9396C9.87999 27.9418 9.85871 27.9467 9.83849 27.9442C9.7708 27.9357 9.74339 27.9737 9.7169 28.0267C9.58688 28.2869 9.52516 28.5622 9.51751 28.8495C9.51506 28.9394 9.52287 29.0295 9.52607 29.1195C9.52639 29.1312 9.52607 29.1428 9.52607 29.1602C9.43725 29.1131 9.35226 29.0683 9.26757 29.0233C9.21045 28.9928 9.15455 28.9601 9.09622 28.9322C9.06512 28.9174 9.06053 28.8989 9.06482 28.8683C9.10478 28.5799 9.1835 28.3015 9.29177 28.0309C9.44292 27.654 9.6221 27.2901 9.84124 26.9454C10.1469 26.4649 10.5391 26.062 11.006 25.7281C11.323 25.5013 11.645 25.2812 11.9644 25.0579C11.9791 25.0476 11.9918 25.0346 12.0055 25.0228C11.9929 25.0252 11.9799 25.0261 11.9685 25.0307C11.4642 25.2382 10.9796 25.4809 10.5333 25.7912C10.0979 26.094 9.71658 26.4492 9.42546 26.8894C9.25976 27.1401 9.13158 27.4077 9.04475 27.6936C9.04092 27.7062 9.03694 27.7189 9.03005 27.7412C9.02362 27.717 9.01903 27.7021 9.01551 27.6867C8.95333 27.4095 8.91581 27.1296 8.92254 26.8455C8.93067 26.5034 9.0005 26.1752 9.16497 25.8692C9.30907 25.6008 9.50939 25.3787 9.75274 25.1918C10.0808 24.9399 10.4531 24.7689 10.8445 24.6342C11.3635 24.4556 11.9001 24.346 12.4413 24.2549C12.6324 24.2227 12.824 24.1933 13.0154 24.1625C13.0219 24.1615 13.0284 24.161 13.0412 24.1595C13.0277 24.2385 13.0157 24.3138 13.0019 24.3887Z" fill="#96E363"/>
<path d="M11.2494 37.423C11.2494 37.5012 11.2416 37.5778 11.2266 37.6518C11.117 38.1971 10.6231 38.6097 10.0319 38.6097C9.38628 38.6097 8.85641 38.1174 8.8169 37.4977C8.81521 37.473 8.81445 37.448 8.81445 37.423C8.81445 37.1598 8.90282 36.9163 9.05213 36.7195C9.27387 36.4267 9.63055 36.2363 10.0319 36.2363C10.49 36.2363 10.8897 36.4839 11.0973 36.8492C11.1943 37.0194 11.2494 37.2151 11.2494 37.423Z" fill="#96E363"/>
<path d="M22.4437 21.4953C22.4437 21.9788 22.1457 22.3956 21.7193 22.5802C21.5686 22.6457 21.4016 22.682 21.2262 22.682C21.1186 22.682 21.014 22.6683 20.9145 22.6425C20.3936 22.508 20.0088 22.0448 20.0088 21.4953C20.0088 21.2413 20.0911 21.0055 20.2312 20.8124C20.3921 20.59 20.6298 20.4237 20.9063 20.3502C21.0082 20.3231 21.1156 20.3086 21.2262 20.3086C21.8976 20.3086 22.4437 20.8409 22.4437 21.4953Z" fill="#96E363"/>
<path d="M2.53555 19.8088C2.53555 20.4632 1.98944 20.9955 1.31807 20.9955C1.28637 20.9955 1.25497 20.9943 1.22388 20.9921C0.932761 20.9701 0.669969 20.8482 0.471956 20.6613C0.243008 20.4454 0.100586 20.143 0.100586 19.8088C0.100586 19.1544 0.646691 18.6221 1.31807 18.6221C1.59281 18.6221 1.84655 18.7112 2.05039 18.8615C2.26756 19.0212 2.42835 19.2502 2.49756 19.5146C2.52238 19.6088 2.53555 19.7073 2.53555 19.8088Z" fill="#96E363"/>
</g>
<path d="M42.488 18.8935L38.3843 32.1864H34.05L29.9463 18.8935H33.4173L34.8938 24.0277C35.4181 25.7453 35.8526 27.4878 36.1978 29.2552H36.2361C36.5431 27.6994 36.9776 25.9569 37.5401 24.0277L39.0361 18.8935H42.488ZM51.9637 32.1864L51.1008 29.3673H46.153L45.271 32.1864H41.7805L46.4409 18.8935H50.7939L55.4538 32.1864H51.9637ZM46.9776 26.7161H50.2953L50.0078 25.82C49.4578 24.0526 48.9975 22.4407 48.6269 20.9845H48.5887C48.2049 22.5279 47.7574 24.1397 47.246 25.82L46.9776 26.7161ZM59.8708 18.8935V29.4419H66.0456V32.1864H56.5531V18.8935H59.8708ZM77.3232 18.8935V21.6006H70.9948V24.121H76.9015V26.7908H70.9948V29.4793H77.4768V32.1864H67.6771V18.8935H77.3232ZM92.2968 18.8935V32.1864H87.5022L85.1243 26.9402C84.2805 25.0856 83.5389 23.312 82.8999 21.6193H82.8614C82.9636 23.6107 83.015 25.4777 83.015 27.2202V32.1864H79.8315V18.8935H84.6066L87.0037 24.1397C87.8474 26.044 88.589 27.8177 89.2283 29.4606H89.2666C89.1644 27.8052 89.1133 25.9382 89.1133 23.8597V18.8935H92.2968ZM100.769 18.5947C102.533 18.5947 103.946 19.0553 105.007 19.9763C106.081 20.8849 106.65 22.1171 106.714 23.6729H103.281C103.204 22.951 102.942 22.3909 102.495 21.9926C102.06 21.5944 101.485 21.3952 100.769 21.3952C99.8611 21.3952 99.1449 21.7686 98.621 22.5154C98.1096 23.2498 97.8537 24.2579 97.8537 25.5399C97.8537 26.8219 98.1096 27.8363 98.621 28.5831C99.1449 29.3175 99.8482 29.6847 100.73 29.6847C101.446 29.6847 102.028 29.4793 102.475 29.0686C102.936 28.6578 103.21 28.079 103.3 27.3322H106.771C106.643 28.9752 106.042 30.2447 104.968 31.1409C103.895 32.0371 102.482 32.4851 100.73 32.4851C98.7614 32.4851 97.2081 31.869 96.0702 30.6368C94.9452 29.3922 94.3827 27.6932 94.3827 25.5399C94.3827 23.3867 94.9515 21.694 96.0893 20.4617C97.2272 19.2171 98.7872 18.5947 100.769 18.5947ZM119.198 18.8935L114.519 27.1642V32.1864H111.201V27.1642L106.522 18.8935H110.204L111.393 21.3019C111.943 22.4096 112.429 23.5236 112.851 24.6438H112.889C113.272 23.5734 113.752 22.4594 114.327 21.3019L115.516 18.8935H119.198ZM134.742 18.8935V21.6006H128.414V24.121H134.32V26.7908H128.414V29.4793H134.896V32.1864H125.096V18.8935H134.742ZM149.715 18.8935V32.1864H144.921L142.543 26.9402C141.699 25.0856 140.958 23.312 140.319 21.6193H140.28C140.383 23.6107 140.434 25.4777 140.434 27.2202V32.1864H137.25V18.8935H142.026L144.423 24.1397C145.266 26.044 146.008 27.8177 146.647 29.4606H146.686C146.583 27.8052 146.532 25.9382 146.532 23.8597V18.8935H149.715ZM162.253 18.8935V21.6006H155.925V24.121H161.831V26.7908H155.925V29.4793H162.407V32.1864H152.607V18.8935H162.253ZM164.761 32.1864V18.8935H170.304C173.653 18.8935 175.328 20.1568 175.328 22.6834C175.328 23.4925 175.104 24.1833 174.657 24.7558C174.209 25.3159 173.596 25.708 172.816 25.932V25.9693C173.301 26.1311 173.692 26.405 173.986 26.7908C174.279 27.1642 174.586 27.7803 174.906 28.6391L176.229 32.1864H172.662L171.627 29.1806C171.384 28.4836 171.096 28.0044 170.764 27.743C170.444 27.4692 169.965 27.3322 169.325 27.3322H168.079V32.1864H164.761ZM169.766 21.3952H168.079V24.8865H169.901C171.333 24.8865 172.048 24.2891 172.048 23.0942C172.048 21.9615 171.288 21.3952 169.766 21.3952ZM183.419 18.5947C185.119 18.5947 186.494 19.0055 187.542 19.827C188.591 20.636 189.179 21.7375 189.306 23.1315H185.74C185.535 21.9118 184.762 21.3019 183.419 21.3019C182.448 21.3019 181.68 21.6877 181.118 22.4594C180.555 23.2187 180.274 24.2642 180.274 25.5959C180.274 26.9526 180.549 28.023 181.099 28.8072C181.661 29.5913 182.428 29.9834 183.4 29.9834C184.256 29.9834 184.921 29.7469 185.394 29.2739C185.867 28.7885 186.117 28.1039 186.142 27.2202H183.208V24.7185H189.249V32.1864H186.411V30.8422H186.372C185.554 31.9126 184.288 32.4478 182.575 32.4478C180.798 32.4478 179.392 31.8379 178.356 30.6181C177.321 29.3984 176.803 27.7243 176.803 25.5959C176.803 23.4302 177.391 21.7251 178.567 20.4804C179.756 19.2233 181.374 18.5947 183.419 18.5947ZM201.956 18.8935L197.276 27.1642V32.1864H193.959V27.1642L189.279 18.8935H192.961L194.15 21.3019C194.7 22.4096 195.186 23.5236 195.608 24.6438H195.646C196.03 23.5734 196.509 22.4594 197.085 21.3019L198.274 18.8935H201.956Z" fill="#96E363"/>
</g>
<defs>
<clipPath id="clip0_365_1065">
<rect width="202" height="55" fill="white"/>
</clipPath>
</defs>
</svg>
