<svg width="25" height="24" viewBox="0 0 25 24" fill="none" xmlns="http://www.w3.org/2000/svg">
<path d="M2.5 12C2.5 9.17157 2.5 7.75736 3.37868 6.87868C4.25736 6 5.67157 6 8.5 6H13.5C16.3284 6 17.7426 6 18.6213 6.87868C19.5 7.75736 19.5 9.17157 19.5 12C19.5 14.8284 19.5 16.2426 18.6213 17.1213C17.7426 18 16.3284 18 13.5 18H8.5C5.67157 18 4.25736 18 3.37868 17.1213C2.5 16.2426 2.5 14.8284 2.5 12Z" stroke="white" stroke-width="1.5" stroke-linecap="round"/>
<path d="M19.5 9.5L20.5272 9.6712C21.2085 9.78475 21.5491 9.84152 21.8076 10.0067C22.0618 10.1691 22.2612 10.4044 22.3796 10.6819C22.5 10.964 22.5 11.3093 22.5 12C22.5 12.6907 22.5 13.036 22.3796 13.3181C22.2612 13.5956 22.0618 13.8309 21.8076 13.9933C21.5491 14.1585 21.2085 14.2153 20.5272 14.3288L19.5 14.5" stroke="white" stroke-width="1.5" stroke-linecap="round"/>
<path d="M6.5 10V14" stroke="white" stroke-width="1.5" stroke-linecap="round"/>
<path d="M9.5 10V14" stroke="white" stroke-width="1.5" stroke-linecap="round"/>
</svg>
