<svg width="32" height="32" viewBox="0 0 32 32" fill="none" xmlns="http://www.w3.org/2000/svg">
<path d="M11.5041 16.8981H10.8922C8.91385 16.8981 7.92469 16.8981 7.50306 16.2459C7.08144 15.5937 7.48317 14.6851 8.28664 12.8678L10.7022 7.40431C11.4327 5.752 11.7979 4.92584 12.5065 4.46292C13.2151 4 14.1145 4 15.9133 4H18.6991C20.8842 4 21.9767 4 22.3887 4.7138C22.8008 5.4276 22.2588 6.38117 21.1747 8.28831L19.7455 10.8025C19.2066 11.7506 18.9371 12.2247 18.9408 12.6127C18.9458 13.117 19.2139 13.5816 19.6471 13.836C19.9805 14.0319 20.5235 14.0319 21.6098 14.0319C22.983 14.0319 23.6697 14.0319 24.0273 14.2696C24.4918 14.5784 24.735 15.1309 24.6498 15.6843C24.5842 16.1101 24.1223 16.6208 23.1986 17.6423L15.8185 25.8031C14.3689 27.406 13.644 28.2075 13.1573 27.9539C12.6706 27.7001 12.9044 26.6429 13.3718 24.5283L14.2875 20.3861C14.6434 18.776 14.8214 17.9709 14.3934 17.4345C13.9654 16.8981 13.1449 16.8981 11.5041 16.8981Z" stroke="#181818" stroke-width="2" stroke-linejoin="round"/>
</svg>
