<svg width="20" height="20" viewBox="0 0 20 20" fill="none" xmlns="http://www.w3.org/2000/svg">
<path d="M11.6724 8.33618V10.4183M8.35267 10.4183V8.33618M7.11153 11.1523C7.07897 10.7566 7.41902 10.4191 7.85017 10.4191H12.1782C12.6093 10.4191 12.9493 10.7566 12.9168 11.1523L12.8278 12.2333C12.7638 13.0103 12.4837 13.7593 12.0146 14.4079L11.7237 14.8102C11.4491 15.1899 10.9862 15.4181 10.4904 15.4181H9.53792C9.04217 15.4181 8.57933 15.1899 8.30461 14.8102L8.01375 14.4079C7.54454 13.7593 7.2645 13.0103 7.20053 12.2333L7.11153 11.1523Z" stroke="white" stroke-width="1.25" stroke-linecap="round"/>
<path d="M12.5026 18.3341C13.9874 18.3181 14.6237 18.2397 15.4075 17.9175C16.0683 17.6471 16.4832 17.2685 16.8431 16.5965C17.3833 15.588 17.5635 14.4312 17.7247 13.2976L18.3122 9.16929C18.3551 8.50796 18.334 8.01493 18.18 7.53082C17.8856 6.60647 17.0916 5.95399 16.318 5.37229C12.7184 2.66604 11.0265 1.58465 10.0129 1.67072C9.05171 1.59475 7.74277 2.37162 3.58892 5.46977C2.89568 5.98684 2.20115 6.55172 1.88542 7.35872C1.44347 8.48837 1.783 9.76729 1.96914 10.9665C2.18798 12.3764 2.44786 14.0965 2.91475 16.0687C2.94343 16.1899 2.98409 16.3085 3.03872 16.4203C3.45286 17.268 3.81653 17.6214 4.61825 17.9175C5.45061 18.225 8.06152 18.4932 9.37112 18.1985C9.81279 18.0991 10.0129 17.6606 10.0129 17.2062V15.418" stroke="white" stroke-width="1.25" stroke-linecap="round" stroke-linejoin="round"/>
</svg>
