<svg width="156" height="35" viewBox="0 0 156 35" fill="none" xmlns="http://www.w3.org/2000/svg">
<g clip-path="url(#clip0_497_1987)">
<path d="M11.7576 30.264L37.8858 4.13588C38.8323 3.18936 39.3055 2.7161 39.7077 2.88267C40.1098 3.04923 40.1098 3.71852 40.1098 5.0571V30.5061C40.1098 31.8446 40.1098 32.5139 39.7077 32.6805C39.3055 32.847 38.8323 32.3738 37.8858 31.4273L28.6126 22.1541" stroke="white" stroke-width="3.257" stroke-linecap="round"/>
<path d="M30.2086 5.29916L4.08043 31.4273C3.13391 32.3738 2.66065 32.8471 2.25853 32.6805C1.85641 32.5139 1.85641 31.8447 1.85641 30.5061V5.05712C1.85641 3.71854 1.85641 3.04925 2.25853 2.88269C2.66065 2.71613 3.13391 3.18939 4.08043 4.1359L13.3536 13.4091" stroke="white" stroke-width="3.257" stroke-linecap="round"/>
</g>
<path d="M60.5885 19.2421C59.525 19.2421 58.5806 18.9722 57.7552 18.4326C56.9299 17.8929 56.2791 17.1548 55.8029 16.2184C55.3426 15.266 55.1125 14.1867 55.1125 12.9804C55.1125 11.7106 55.3902 10.5757 55.9458 9.5757C56.5172 8.57573 57.3108 7.79798 58.3267 7.24244C59.3425 6.67103 60.5409 6.38533 61.9218 6.38533C63.2709 6.38533 64.4296 6.66309 65.3979 7.21863C66.382 7.77417 67.1438 8.53605 67.6835 9.50428C68.2232 10.4725 68.493 11.5836 68.493 12.8375V18.9326H64.5169V17.0279H64.4217C64.1995 17.4564 63.9138 17.8374 63.5646 18.1707C63.2154 18.504 62.7948 18.7659 62.3027 18.9564C61.8265 19.1468 61.2551 19.2421 60.5885 19.2421ZM61.8265 15.6469C62.3345 15.6469 62.771 15.5279 63.136 15.2898C63.5011 15.0359 63.7868 14.6946 63.9931 14.266C64.1995 13.8375 64.3027 13.3534 64.3027 12.8137C64.3027 12.274 64.1995 11.8058 63.9931 11.409C63.7868 10.9963 63.5011 10.6709 63.136 10.4328C62.771 10.1789 62.3345 10.0519 61.8265 10.0519C61.3345 10.0519 60.898 10.1789 60.5171 10.4328C60.152 10.6709 59.8663 10.9963 59.6599 11.409C59.4536 11.8058 59.3504 12.274 59.3504 12.8137C59.3504 13.3534 59.4536 13.8375 59.6599 14.266C59.8663 14.6946 60.152 15.0359 60.5171 15.2898C60.898 15.5279 61.3345 15.6469 61.8265 15.6469ZM70.8865 18.9326V11.7423C70.8865 10.6788 71.1246 9.7503 71.6008 8.95667C72.0928 8.14718 72.7754 7.52021 73.6484 7.07578C74.5213 6.61548 75.561 6.38533 76.7673 6.38533C77.3705 6.38533 77.926 6.44882 78.4339 6.57579C78.9577 6.6869 79.426 6.85356 79.8386 7.07578C80.2672 7.298 80.6323 7.55196 80.9338 7.83766H80.9815C81.2989 7.55196 81.664 7.298 82.0767 7.07578C82.4893 6.85356 82.9497 6.6869 83.4576 6.57579C83.9814 6.44882 84.5448 6.38533 85.148 6.38533C86.3702 6.38533 87.4178 6.61548 88.2908 7.07578C89.1796 7.52021 89.8621 8.14718 90.3383 8.95667C90.8145 9.7503 91.0526 10.6788 91.0526 11.7423V18.9326H86.9098V11.9328C86.9098 11.5836 86.8305 11.2661 86.6718 10.9804C86.513 10.6947 86.2908 10.4646 86.0051 10.29C85.7194 10.1154 85.3781 10.0281 84.9813 10.0281C84.6004 10.0281 84.2591 10.1154 83.9576 10.29C83.6719 10.4646 83.4417 10.6947 83.2671 10.9804C83.1084 11.2661 83.029 11.5836 83.029 11.9328V18.9326H78.9101V11.9328C78.9101 11.5836 78.8228 11.2661 78.6482 10.9804C78.4895 10.6947 78.2593 10.4646 77.9577 10.29C77.672 10.1154 77.3308 10.0281 76.934 10.0281C76.5689 10.0281 76.2356 10.1154 75.934 10.29C75.6483 10.4646 75.4181 10.6947 75.2435 10.9804C75.0848 11.2661 75.0055 11.5836 75.0055 11.9328V18.9326H70.8865ZM100.059 6.36152C101.09 6.36152 102.019 6.52024 102.844 6.83769C103.67 7.15514 104.368 7.61545 104.939 8.2186C105.527 8.80589 105.971 9.50428 106.273 10.3138C106.59 11.1233 106.749 12.0121 106.749 12.9804C106.749 14.2184 106.495 15.3057 105.987 16.2422C105.495 17.1786 104.805 17.9088 103.916 18.4326C103.027 18.9564 102.019 19.2183 100.892 19.2183C100.447 19.2183 100.019 19.1627 99.6063 19.0516C99.1936 18.9405 98.8206 18.7818 98.4872 18.5754C98.1539 18.3532 97.8603 18.0913 97.6063 17.7897H97.5111V24.0514H93.3683V13.028C93.3683 11.6788 93.6461 10.5042 94.2017 9.50428C94.7572 8.50431 95.5349 7.73449 96.5349 7.19482C97.5508 6.63929 98.7253 6.36152 100.059 6.36152ZM100.059 9.95664C99.5824 9.95664 99.1539 10.0836 98.7729 10.3376C98.392 10.5757 98.0984 10.909 97.892 11.3376C97.6857 11.7502 97.5825 12.2344 97.5825 12.7899C97.5825 13.2978 97.6857 13.766 97.892 14.1946C98.0984 14.6073 98.392 14.9406 98.7729 15.1946C99.1539 15.4327 99.5824 15.5517 100.059 15.5517C100.567 15.5517 101.003 15.4327 101.368 15.1946C101.749 14.9406 102.035 14.6073 102.225 14.1946C102.432 13.766 102.535 13.2978 102.535 12.7899C102.535 12.2344 102.432 11.7502 102.225 11.3376C102.035 10.909 101.749 10.5757 101.368 10.3376C101.003 10.0836 100.567 9.95664 100.059 9.95664ZM108.716 18.9326V1.55214H112.834V18.9326H108.716ZM126.597 19.2421C125.534 19.2421 124.59 18.9722 123.764 18.4326C122.939 17.8929 122.288 17.1548 121.812 16.2184C121.352 15.266 121.121 14.1867 121.121 12.9804C121.121 11.7106 121.399 10.5757 121.955 9.5757C122.526 8.57573 123.32 7.79798 124.336 7.24244C125.351 6.67103 126.55 6.38533 127.931 6.38533C129.28 6.38533 130.439 6.66309 131.407 7.21863C132.391 7.77417 133.153 8.53605 133.692 9.50428C134.232 10.4725 134.502 11.5836 134.502 12.8375V18.9326H130.526V17.0279H130.431C130.208 17.4564 129.923 17.8374 129.574 18.1707C129.224 18.504 128.804 18.7659 128.312 18.9564C127.835 19.1468 127.264 19.2421 126.597 19.2421ZM127.835 15.6469C128.343 15.6469 128.78 15.5279 129.145 15.2898C129.51 15.0359 129.796 14.6946 130.002 14.266C130.208 13.8375 130.312 13.3534 130.312 12.8137C130.312 12.274 130.208 11.8058 130.002 11.409C129.796 10.9963 129.51 10.6709 129.145 10.4328C128.78 10.1789 128.343 10.0519 127.835 10.0519C127.343 10.0519 126.907 10.1789 126.526 10.4328C126.161 10.6709 125.875 10.9963 125.669 11.409C125.463 11.8058 125.359 12.274 125.359 12.8137C125.359 13.3534 125.463 13.8375 125.669 14.266C125.875 14.6946 126.161 15.0359 126.526 15.2898C126.907 15.5279 127.343 15.6469 127.835 15.6469ZM136.895 18.9326V6.67103H141.038V18.9326H136.895ZM138.967 5.33774C138.332 5.33774 137.784 5.10759 137.324 4.64728C136.88 4.18698 136.657 3.64731 136.657 3.02829C136.657 2.39339 136.88 1.85372 137.324 1.40929C137.784 0.948985 138.332 0.718833 138.967 0.718833C139.602 0.718833 140.141 0.948985 140.586 1.40929C141.046 1.85372 141.276 2.39339 141.276 3.02829C141.276 3.64731 141.046 4.18698 140.586 4.64728C140.141 5.10759 139.602 5.33774 138.967 5.33774Z" fill="white"/>
<path d="M56.9296 32.1083L55.0983 28.118H55.9383L57.4084 31.4866H56.9212L58.3997 28.118H59.2061L57.3748 32.1083H56.9296ZM61.4 32.1923C61.036 32.1923 60.7056 32.1027 60.4088 31.9235C60.1119 31.7387 59.8767 31.4894 59.7031 31.1758C59.5351 30.8622 59.4511 30.5094 59.4511 30.1174C59.4511 29.7253 59.5351 29.3725 59.7031 29.0589C59.8767 28.7453 60.1091 28.4961 60.4004 28.3112C60.6972 28.1264 61.0304 28.034 61.4 28.034C61.7024 28.034 61.9713 28.0984 62.2065 28.2272C62.4473 28.3504 62.6405 28.5241 62.7861 28.7481C62.9317 28.9665 63.0129 29.2213 63.0297 29.5125V30.7138C63.0129 30.9994 62.9317 31.2542 62.7861 31.4782C62.6461 31.7023 62.4557 31.8787 62.2149 32.0075C61.9797 32.1307 61.708 32.1923 61.4 32.1923ZM61.526 31.4782C61.9013 31.4782 62.2037 31.3522 62.4333 31.1002C62.6629 30.8426 62.7777 30.515 62.7777 30.1174C62.7777 29.8429 62.7245 29.6049 62.6181 29.4033C62.5173 29.1961 62.3717 29.0365 62.1813 28.9245C61.9909 28.8069 61.7696 28.7481 61.5176 28.7481C61.2656 28.7481 61.0416 28.8069 60.8456 28.9245C60.6552 29.0421 60.504 29.2045 60.392 29.4117C60.2856 29.6133 60.2324 29.8457 60.2324 30.109C60.2324 30.3778 60.2856 30.6158 60.392 30.823C60.504 31.0246 60.658 31.1842 60.854 31.3018C61.05 31.4194 61.274 31.4782 61.526 31.4782ZM62.7273 32.1083V31.033L62.8701 30.0586L62.7273 29.0925V28.118H63.4918V32.1083H62.7273ZM64.5925 32.1083V26.1103H65.3485V32.1083H64.5925ZM68.3028 32.1923C67.9052 32.1923 67.5468 32.1027 67.2276 31.9235C66.9083 31.7387 66.6563 31.4894 66.4715 31.1758C66.2867 30.8622 66.1943 30.5066 66.1943 30.109C66.1943 29.7169 66.2839 29.3641 66.4631 29.0505C66.6479 28.7369 66.8943 28.4905 67.2024 28.3112C67.516 28.1264 67.866 28.034 68.2524 28.034C68.622 28.034 68.9469 28.118 69.2269 28.286C69.5125 28.4541 69.7337 28.6865 69.8905 28.9833C70.0529 29.2801 70.1341 29.6161 70.1341 29.9913C70.1341 30.0474 70.1313 30.109 70.1257 30.1762C70.1201 30.2378 70.1089 30.3106 70.0921 30.3946H66.7235V29.7645H69.6889L69.4117 30.0081C69.4117 29.7393 69.3641 29.5125 69.2689 29.3277C69.1737 29.1373 69.0393 28.9917 68.8657 28.8909C68.692 28.7845 68.482 28.7313 68.2356 28.7313C67.978 28.7313 67.7512 28.7873 67.5552 28.8993C67.3592 29.0113 67.208 29.1681 67.1015 29.3697C66.9951 29.5713 66.9419 29.8093 66.9419 30.0838C66.9419 30.3638 66.9979 30.6102 67.1099 30.823C67.222 31.0302 67.3816 31.1926 67.5888 31.3102C67.796 31.4222 68.034 31.4782 68.3028 31.4782C68.5268 31.4782 68.7312 31.439 68.9161 31.3606C69.1065 31.2822 69.2689 31.1646 69.4033 31.0078L69.8905 31.5034C69.7001 31.7275 69.4649 31.8983 69.1849 32.0159C68.9105 32.1335 68.6164 32.1923 68.3028 32.1923ZM73.7811 32.1083V29.7813C73.7811 29.4789 73.6859 29.2297 73.4955 29.0337C73.305 28.8377 73.0586 28.7397 72.7562 28.7397C72.5546 28.7397 72.3754 28.7845 72.2186 28.8741C72.0618 28.9637 71.9386 29.0869 71.849 29.2437C71.7593 29.4005 71.7145 29.5797 71.7145 29.7813L71.4037 29.6049C71.4037 29.3025 71.4709 29.0337 71.6053 28.7985C71.7397 28.5633 71.9274 28.3784 72.1682 28.244C72.409 28.104 72.6806 28.034 72.983 28.034C73.2854 28.034 73.5515 28.1096 73.7811 28.2608C74.0163 28.4121 74.2011 28.6109 74.3355 28.8573C74.4699 29.0981 74.5371 29.3557 74.5371 29.6301V32.1083H73.7811ZM70.9585 32.1083V28.118H71.7145V32.1083H70.9585ZM77.3836 32.1923C76.9916 32.1923 76.636 32.0999 76.3168 31.9151C76.0032 31.7303 75.7539 31.481 75.5691 31.1674C75.3899 30.8482 75.3003 30.4954 75.3003 30.109C75.3003 29.7169 75.3899 29.3641 75.5691 29.0505C75.7539 28.7369 76.0032 28.4905 76.3168 28.3112C76.636 28.1264 76.9916 28.034 77.3836 28.034C77.6917 28.034 77.9773 28.0928 78.2405 28.2104C78.5037 28.3224 78.7305 28.4877 78.9209 28.7061L78.4169 29.2101C78.2937 29.0645 78.1425 28.9553 77.9633 28.8825C77.7897 28.8041 77.5965 28.7649 77.3836 28.7649C77.1316 28.7649 76.9076 28.8237 76.7116 28.9413C76.5156 29.0533 76.3616 29.2101 76.2496 29.4117C76.1376 29.6133 76.0816 29.8457 76.0816 30.109C76.0816 30.3722 76.1376 30.6046 76.2496 30.8062C76.3616 31.0078 76.5156 31.1674 76.7116 31.285C76.9076 31.4026 77.1316 31.4614 77.3836 31.4614C77.5965 31.4614 77.7897 31.425 77.9633 31.3522C78.1425 31.2738 78.2965 31.1618 78.4253 31.0162L78.9209 31.5202C78.7361 31.7331 78.5093 31.8983 78.2405 32.0159C77.9773 32.1335 77.6917 32.1923 77.3836 32.1923ZM80.9812 32.1419L79.2507 28.118H80.0908L81.376 31.2682H81.1072L82.4597 28.118H83.2998L81.4349 32.1419H80.9812ZM79.8388 33.78L81.0148 31.369L81.4349 32.1419L80.6788 33.78H79.8388ZM87.5813 32.1923C87.1837 32.1923 86.8253 32.1027 86.5061 31.9235C86.1869 31.7387 85.9348 31.4894 85.75 31.1758C85.5652 30.8622 85.4728 30.5066 85.4728 30.109C85.4728 29.7169 85.5624 29.3641 85.7416 29.0505C85.9264 28.7369 86.1729 28.4905 86.4809 28.3112C86.7945 28.1264 87.1445 28.034 87.5309 28.034C87.9006 28.034 88.2254 28.118 88.5054 28.286C88.791 28.4541 89.0122 28.6865 89.169 28.9833C89.3314 29.2801 89.4126 29.6161 89.4126 29.9913C89.4126 30.0474 89.4098 30.109 89.4042 30.1762C89.3986 30.2378 89.3874 30.3106 89.3706 30.3946H86.002V29.7645H88.9674L88.6902 30.0081C88.6902 29.7393 88.6426 29.5125 88.5474 29.3277C88.4522 29.1373 88.3178 28.9917 88.1442 28.8909C87.9706 28.7845 87.7605 28.7313 87.5141 28.7313C87.2565 28.7313 87.0297 28.7873 86.8337 28.8993C86.6377 29.0113 86.4865 29.1681 86.3801 29.3697C86.2737 29.5713 86.2205 29.8093 86.2205 30.0838C86.2205 30.3638 86.2765 30.6102 86.3885 30.823C86.5005 31.0302 86.6601 31.1926 86.8673 31.3102C87.0745 31.4222 87.3125 31.4782 87.5813 31.4782C87.8054 31.4782 88.0098 31.439 88.1946 31.3606C88.385 31.2822 88.5474 31.1646 88.6818 31.0078L89.169 31.5034C88.9786 31.7275 88.7434 31.8983 88.4634 32.0159C88.189 32.1335 87.895 32.1923 87.5813 32.1923ZM93.0596 32.1083V29.7813C93.0596 29.4789 92.9644 29.2297 92.774 29.0337C92.5836 28.8377 92.3371 28.7397 92.0347 28.7397C91.8331 28.7397 91.6539 28.7845 91.4971 28.8741C91.3403 28.9637 91.2171 29.0869 91.1275 29.2437C91.0379 29.4005 90.9931 29.5797 90.9931 29.7813L90.6822 29.6049C90.6822 29.3025 90.7494 29.0337 90.8839 28.7985C91.0183 28.5633 91.2059 28.3784 91.4467 28.244C91.6875 28.104 91.9591 28.034 92.2615 28.034C92.564 28.034 92.83 28.1096 93.0596 28.2608C93.2948 28.4121 93.4796 28.6109 93.614 28.8573C93.7484 29.0981 93.8156 29.3557 93.8156 29.6301V32.1083H93.0596ZM90.237 32.1083V28.118H90.9931V32.1083H90.237ZM96.6874 32.1923C96.2897 32.1923 95.9313 32.1027 95.6121 31.9235C95.2929 31.7387 95.0409 31.4894 94.856 31.1758C94.6712 30.8622 94.5788 30.5066 94.5788 30.109C94.5788 29.7169 94.6684 29.3641 94.8476 29.0505C95.0325 28.7369 95.2789 28.4905 95.5869 28.3112C95.9005 28.1264 96.2505 28.034 96.637 28.034C97.0066 28.034 97.3314 28.118 97.6114 28.286C97.897 28.4541 98.1182 28.6865 98.2751 28.9833C98.4375 29.2801 98.5187 29.6161 98.5187 29.9913C98.5187 30.0474 98.5159 30.109 98.5103 30.1762C98.5047 30.2378 98.4935 30.3106 98.4767 30.3946H95.1081V29.7645H98.0734L97.7962 30.0081C97.7962 29.7393 97.7486 29.5125 97.6534 29.3277C97.5582 29.1373 97.4238 28.9917 97.2502 28.8909C97.0766 28.7845 96.8666 28.7313 96.6202 28.7313C96.3625 28.7313 96.1357 28.7873 95.9397 28.8993C95.7437 29.0113 95.5925 29.1681 95.4861 29.3697C95.3797 29.5713 95.3265 29.8093 95.3265 30.0838C95.3265 30.3638 95.3825 30.6102 95.4945 30.823C95.6065 31.0302 95.7661 31.1926 95.9733 31.3102C96.1805 31.4222 96.4185 31.4782 96.6874 31.4782C96.9114 31.4782 97.1158 31.439 97.3006 31.3606C97.491 31.2822 97.6534 31.1646 97.7878 31.0078L98.2751 31.5034C98.0846 31.7275 97.8494 31.8983 97.5694 32.0159C97.295 32.1335 97.001 32.1923 96.6874 32.1923ZM99.343 32.1083V28.118H100.099V32.1083H99.343ZM100.099 29.8317L99.8135 29.7057C99.8135 29.1961 99.9311 28.7901 100.166 28.4877C100.402 28.1852 100.74 28.034 101.183 28.034C101.384 28.034 101.566 28.0704 101.729 28.1432C101.891 28.2104 102.042 28.3252 102.182 28.4877L101.687 29.0001C101.603 28.9105 101.51 28.8461 101.41 28.8069C101.309 28.7677 101.191 28.7481 101.057 28.7481C100.777 28.7481 100.547 28.8377 100.368 29.0169C100.189 29.1961 100.099 29.4677 100.099 29.8317ZM104.238 33.864C103.83 33.864 103.466 33.7884 103.146 33.6372C102.833 33.486 102.581 33.2731 102.39 32.9987L102.877 32.5031C103.04 32.7103 103.233 32.8671 103.457 32.9735C103.681 33.0855 103.947 33.1415 104.255 33.1415C104.664 33.1415 104.986 33.0323 105.221 32.8139C105.462 32.6011 105.582 32.3127 105.582 31.9487V30.9574L105.717 30.0586L105.582 29.1681V28.118H106.339V31.9487C106.339 32.3295 106.249 32.6627 106.07 32.9483C105.896 33.2339 105.65 33.458 105.33 33.6204C105.017 33.7828 104.653 33.864 104.238 33.864ZM104.238 32.0411C103.874 32.0411 103.547 31.9543 103.256 31.7807C102.97 31.607 102.743 31.369 102.575 31.0666C102.407 30.7586 102.323 30.4142 102.323 30.0333C102.323 29.6525 102.407 29.3137 102.575 29.0169C102.743 28.7145 102.97 28.4765 103.256 28.3028C103.547 28.1236 103.874 28.034 104.238 28.034C104.552 28.034 104.829 28.0956 105.07 28.2188C105.311 28.342 105.501 28.5157 105.641 28.7397C105.787 28.9581 105.865 29.2157 105.876 29.5125V30.571C105.86 30.8622 105.778 31.1198 105.633 31.3438C105.493 31.5622 105.302 31.7331 105.062 31.8563C104.821 31.9795 104.546 32.0411 104.238 32.0411ZM104.39 31.327C104.636 31.327 104.852 31.2738 105.036 31.1674C105.227 31.061 105.372 30.9126 105.473 30.7222C105.574 30.5262 105.624 30.2994 105.624 30.0418C105.624 29.7841 105.571 29.5601 105.465 29.3697C105.364 29.1737 105.221 29.0225 105.036 28.9161C104.852 28.8041 104.633 28.7481 104.381 28.7481C104.129 28.7481 103.908 28.8041 103.718 28.9161C103.527 29.0225 103.376 29.1737 103.264 29.3697C103.158 29.5601 103.104 29.7813 103.104 30.0333C103.104 30.2854 103.158 30.5094 103.264 30.7054C103.376 30.9014 103.527 31.0554 103.718 31.1674C103.914 31.2738 104.138 31.327 104.39 31.327ZM108.759 32.1419L107.028 28.118H107.868L109.154 31.2682H108.885L110.237 28.118H111.077L109.212 32.1419H108.759ZM107.616 33.78L108.792 31.369L109.212 32.1419L108.456 33.78H107.616ZM115.611 32.1923C115.308 32.1923 115.034 32.1307 114.788 32.0075C114.547 31.8787 114.354 31.7023 114.208 31.4782C114.062 31.2542 113.981 30.9994 113.964 30.7138V29.5125C113.981 29.2213 114.062 28.9665 114.208 28.7481C114.359 28.5241 114.555 28.3504 114.796 28.2272C115.042 28.0984 115.314 28.034 115.611 28.034C115.975 28.034 116.302 28.1264 116.594 28.3112C116.891 28.4961 117.123 28.7453 117.291 29.0589C117.459 29.3725 117.543 29.7253 117.543 30.1174C117.543 30.5094 117.459 30.8622 117.291 31.1758C117.123 31.4894 116.891 31.7387 116.594 31.9235C116.302 32.1027 115.975 32.1923 115.611 32.1923ZM113.511 33.78V28.118H114.267V29.1681L114.124 30.1342L114.267 31.1086V33.78H113.511ZM115.485 31.4782C115.737 31.4782 115.958 31.4194 116.148 31.3018C116.339 31.1842 116.49 31.0246 116.602 30.823C116.714 30.6158 116.77 30.3778 116.77 30.109C116.77 29.8457 116.714 29.6105 116.602 29.4033C116.49 29.1961 116.339 29.0365 116.148 28.9245C115.958 28.8069 115.74 28.7481 115.493 28.7481C115.241 28.7481 115.02 28.8069 114.83 28.9245C114.639 29.0365 114.491 29.1961 114.384 29.4033C114.278 29.6105 114.225 29.8485 114.225 30.1174C114.225 30.3806 114.275 30.6158 114.376 30.823C114.482 31.0246 114.631 31.1842 114.821 31.3018C115.017 31.4194 115.238 31.4782 115.485 31.4782ZM118.4 32.1083V28.118H119.156V32.1083H118.4ZM119.156 29.8317L118.87 29.7057C118.87 29.1961 118.988 28.7901 119.223 28.4877C119.459 28.1852 119.797 28.034 120.24 28.034C120.441 28.034 120.623 28.0704 120.786 28.1432C120.948 28.2104 121.099 28.3252 121.239 28.4877L120.744 29.0001C120.66 28.9105 120.567 28.8461 120.467 28.8069C120.366 28.7677 120.248 28.7481 120.114 28.7481C119.834 28.7481 119.604 28.8377 119.425 29.0169C119.246 29.1961 119.156 29.4677 119.156 29.8317ZM123.463 32.1923C123.071 32.1923 122.719 32.0999 122.405 31.9151C122.091 31.7303 121.842 31.481 121.657 31.1674C121.472 30.8482 121.38 30.4926 121.38 30.1006C121.38 29.7141 121.472 29.3669 121.657 29.0589C121.842 28.7453 122.091 28.4961 122.405 28.3112C122.719 28.1264 123.071 28.034 123.463 28.034C123.85 28.034 124.2 28.1264 124.513 28.3112C124.833 28.4905 125.085 28.7369 125.27 29.0505C125.454 29.3641 125.547 29.7141 125.547 30.1006C125.547 30.4926 125.454 30.8482 125.27 31.1674C125.085 31.481 124.833 31.7303 124.513 31.9151C124.2 32.0999 123.85 32.1923 123.463 32.1923ZM123.463 31.4614C123.715 31.4614 123.939 31.4026 124.135 31.285C124.331 31.1674 124.485 31.0078 124.597 30.8062C124.709 30.599 124.765 30.3638 124.765 30.1006C124.765 29.8429 124.707 29.6133 124.589 29.4117C124.477 29.2101 124.323 29.0533 124.127 28.9413C123.937 28.8237 123.715 28.7649 123.463 28.7649C123.211 28.7649 122.987 28.8237 122.791 28.9413C122.595 29.0533 122.441 29.2101 122.329 29.4117C122.217 29.6133 122.161 29.8429 122.161 30.1006C122.161 30.3638 122.217 30.599 122.329 30.8062C122.441 31.0078 122.595 31.1674 122.791 31.285C122.987 31.4026 123.211 31.4614 123.463 31.4614ZM128.087 32.1923C127.717 32.1923 127.387 32.1027 127.096 31.9235C126.805 31.7387 126.572 31.4894 126.399 31.1758C126.231 30.8622 126.147 30.5094 126.147 30.1174C126.147 29.7253 126.231 29.3725 126.399 29.0589C126.572 28.7453 126.805 28.4961 127.096 28.3112C127.387 28.1264 127.717 28.034 128.087 28.034C128.384 28.034 128.653 28.0984 128.894 28.2272C129.134 28.3504 129.328 28.5241 129.473 28.7481C129.624 28.9665 129.708 29.2213 129.725 29.5125V30.7138C129.708 30.9994 129.627 31.2542 129.482 31.4782C129.336 31.7023 129.143 31.8787 128.902 32.0075C128.661 32.1307 128.39 32.1923 128.087 32.1923ZM128.213 31.4782C128.465 31.4782 128.684 31.4194 128.868 31.3018C129.059 31.1842 129.207 31.0246 129.314 30.823C129.42 30.6158 129.473 30.3806 129.473 30.1174C129.473 29.8429 129.417 29.6049 129.305 29.4033C129.199 29.2017 129.05 29.0421 128.86 28.9245C128.675 28.8069 128.457 28.7481 128.205 28.7481C127.953 28.7481 127.731 28.8069 127.541 28.9245C127.351 29.0421 127.199 29.2045 127.087 29.4117C126.981 29.6133 126.928 29.8457 126.928 30.109C126.928 30.3778 126.981 30.6158 127.087 30.823C127.199 31.0246 127.351 31.1842 127.541 31.3018C127.737 31.4194 127.961 31.4782 128.213 31.4782ZM130.187 32.1083H129.423V31.033L129.566 30.0586L129.423 29.0925V26.1103H130.187V32.1083ZM132.901 32.1923C132.57 32.1923 132.274 32.1195 132.01 31.9739C131.753 31.8227 131.551 31.6154 131.406 31.3522C131.26 31.089 131.187 30.7838 131.187 30.4366V28.118H131.943V30.403C131.943 30.6214 131.98 30.8118 132.052 30.9742C132.131 31.131 132.243 31.2514 132.388 31.3354C132.534 31.4194 132.705 31.4614 132.901 31.4614C133.198 31.4614 133.43 31.369 133.598 31.1842C133.766 30.9938 133.85 30.7334 133.85 30.403V28.118H134.606V30.4366C134.606 30.7838 134.533 31.089 134.388 31.3522C134.242 31.6154 134.041 31.8227 133.783 31.9739C133.531 32.1195 133.237 32.1923 132.901 32.1923ZM137.442 32.1923C137.05 32.1923 136.695 32.0999 136.376 31.9151C136.062 31.7303 135.813 31.481 135.628 31.1674C135.449 30.8482 135.359 30.4954 135.359 30.109C135.359 29.7169 135.449 29.3641 135.628 29.0505C135.813 28.7369 136.062 28.4905 136.376 28.3112C136.695 28.1264 137.05 28.034 137.442 28.034C137.75 28.034 138.036 28.0928 138.299 28.2104C138.562 28.3224 138.789 28.4877 138.98 28.7061L138.476 29.2101C138.352 29.0645 138.201 28.9553 138.022 28.8825C137.848 28.8041 137.655 28.7649 137.442 28.7649C137.19 28.7649 136.966 28.8237 136.77 28.9413C136.574 29.0533 136.42 29.2101 136.308 29.4117C136.196 29.6133 136.14 29.8457 136.14 30.109C136.14 30.3722 136.196 30.6046 136.308 30.8062C136.42 31.0078 136.574 31.1674 136.77 31.285C136.966 31.4026 137.19 31.4614 137.442 31.4614C137.655 31.4614 137.848 31.425 138.022 31.3522C138.201 31.2738 138.355 31.1618 138.484 31.0162L138.98 31.5202C138.795 31.7331 138.568 31.8983 138.299 32.0159C138.036 32.1335 137.75 32.1923 137.442 32.1923ZM140.293 32.1083V26.4463H141.05V32.1083H140.293ZM139.311 28.8069V28.118H142.032V28.8069H139.311Z" fill="white"/>
<defs>
<clipPath id="clip0_497_1987">
<rect width="41.9501" height="33.5471" fill="white" transform="translate(0 1)"/>
</clipPath>
</defs>
</svg>
